<?xml version="1.0" encoding="iso-8859-1"?>
<!-- Generator: Adobe Illustrator 19.0.0, SVG Export Plug-In . SVG Version: 6.00 Build 0)  -->
<svg version="1.1" id="Layer_1" xmlns="http://www.w3.org/2000/svg" xmlns:xlink="http://www.w3.org/1999/xlink" x="0px" y="0px"
	 viewBox="0 0 512 512" style="enable-background:new 0 0 512 512;" xml:space="preserve">
<g>
	<g>
		<path d="M397.042,299.264c2.981-2.432,6.238-4.533,9.718-6.255l-0.557-110.742c-0.123-24.585-20.225-44.585-44.81-44.585
			c-46.031,0-87.578,0.454-87.578,0.454c-11.379,0-22.156,4.953-29.565,13.589l-21.987,25.625l-15.169-45.555
			c-3.249-9.754-13.787-15.03-23.543-11.781c-9.755,3.248-15.029,13.789-11.781,23.543l25.554,76.743
			c4.562,13.698,22.375,17.213,31.79,6.242l41.841-48.763v56.118h91.555v-51.423c0-1.605,1.299-2.908,2.904-2.912
			c1.605-0.004,2.912,1.291,2.92,2.896l0.258,51.438h7.369c13.686,0,24.555,11.59,23.673,25.251L397.042,299.264z"/>
	</g>
</g>
<g>
	<g>
		<path d="M375.964,247.227H246.431c-6.003,0-10.754,5.077-10.368,11.059l2.323,35.962c7.744-4.626,16.786-7.293,26.443-7.293
			c28.523,0,51.728,23.205,51.728,51.728c0,8.898-2.259,17.279-6.233,24.598c8.799-6.923,19.881-11.067,31.919-11.067
			c12.383,0,23.76,4.377,32.675,11.661c1.525-0.292,3.069-0.531,4.634-0.697l0.628-9.71c-1.341-4.576-2.074-9.41-2.074-14.416
			c0-7.333,1.557-14.306,4.337-20.623l3.889-60.144C386.72,252.297,381.959,247.227,375.964,247.227z"/>
	</g>
</g>
<g>
	<g>
		<path d="M511.81,418.818c-0.107-21.205-17.445-38.457-38.651-38.457c-9.149,0-76.688,0-84.898,0
			c3.642,7.077,5.712,15.09,5.712,23.583c0,9.813-2.746,18.994-7.51,26.819c18.93,0.766,35.518,10.925,45.211,25.932h40.635V418.04
			c0-1.9,1.54-3.44,3.44-3.44c1.9,0,3.44,1.54,3.44,3.44c0,0.298-0.014,0.612-0.043,0.943l0.19,37.713H512L511.81,418.818z"/>
	</g>
</g>
<g>
	<g>
		<path d="M290.517,403.944c0-8.64,2.141-16.785,5.902-23.953h-31.655h-0.14h-43.576c3.476,6.948,5.444,14.777,5.444,23.06
			c0,8.186-1.919,15.929-5.318,22.816v4.006h-0.001c14.94,0.639,28.41,7.132,38.177,17.235
			c10.068-9.836,23.793-15.934,38.889-16.015C292.997,422.629,290.517,413.128,290.517,403.944z"/>
	</g>
</g>
<g>
	<g>
		<path d="M264.83,304.834c-18.689,0-33.851,15.144-33.851,33.85c0,18.659,15.146,33.851,33.85,33.851
			c18.595,0,33.85-15.084,33.85-33.851C298.68,319.989,283.525,304.834,264.83,304.834z"/>
	</g>
</g>
<g>
	<g>
		<path d="M128.452,380.04c-1.415-0.07,1.911-0.049-45.698-0.049h-0.14H38.844c-21.095,0-38.544,17.161-38.651,38.457L0,456.695
			c14.787,0,17.535,0,32.666,0l0.191-38.084c0,0,0-0.001,0-0.002c0.116-1.845,1.675-3.264,3.523-3.206
			c1.848,0.059,3.313,1.574,3.313,3.423v37.868h45.789c8.779-14.034,23.579-23.934,40.723-26.058v-9.747
			c-2.05-5.563-3.172-11.572-3.172-17.837C123.034,394.788,124.991,386.976,128.452,380.04z"/>
	</g>
</g>
<g>
	<g>
		<path d="M82.547,304.834c-18.694,0-33.851,15.155-33.851,33.85c0.001,18.756,15.248,33.851,33.851,33.851
			c18.666,0,33.85-15.161,33.85-33.851C116.396,319.988,101.241,304.834,82.547,304.834z"/>
	</g>
</g>
<g>
	<g>
		<path d="M342.244,370.093c-18.695,0-33.85,15.155-33.85,33.85c0,18.696,15.154,33.851,33.85,33.851
			c18.689,0,33.851-15.139,33.851-33.851C376.095,385.225,360.921,370.093,342.244,370.093z"/>
	</g>
</g>
<g>
	<g>
		<path d="M174.762,369.201c-18.704,0-33.85,15.16-33.85,33.85c0,18.692,15.151,33.851,33.85,33.851
			c18.685,0,33.85-15.153,33.85-33.851C208.612,384.357,193.457,369.201,174.762,369.201z"/>
	</g>
</g>
<g>
	<g>
		<path d="M423.926,487.042c-0.104-21.265-18.611-38.458-39.76-38.458c-9.587,0-76.69,0-85.624,0
			c-18.517,0-35.779,13.158-39.929,30.613c-4.242-17.344-21.427-30.395-39.871-30.395c-28.794,0-18.842,0-85.624,0
			c-21.205,0-41.878,17.252-41.984,38.457l-0.192,17.139h32.666l0.191-16.974c0.001-0.243,0.026-0.488,0.072-0.731
			c0.392-2.055,2.284-3.475,4.367-3.276c2.083,0.198,3.671,1.949,3.671,4.042v16.941c47.714,0-21.018,0,86.512,0v-17.604
			c0-2.362,1.914-4.277,4.276-4.277c2.362,0,4.277,1.913,4.279,4.275c0,0.202-0.009,0.412-0.027,0.631l0.191,16.974
			c14.379,0,18.059,0,30.335,0h2.331h30.335l0.191-17.192c0.002-0.495,0.132-0.977,0.359-1.438c0.719-1.461,2.35-2.233,3.935-1.863
			c1.585,0.37,2.706,1.783,2.706,3.411v17.082c19.155,0,68.577,0,86.511,0v-17.174c0-2.042,1.651-3.701,3.693-3.709
			c2.042-0.009,3.707,1.635,3.724,3.679c0,0.004,0,0.008,0,0.012l0.191,17.193h32.666L423.926,487.042z"/>
	</g>
</g>
<g>
	<g>
		<path d="M429.455,305.204c-18.737,0.001-33.85,15.187-33.85,33.851c0,18.68,15.141,33.85,33.85,33.85
			c18.71,0,33.851-15.154,33.851-33.85S448.151,305.204,429.455,305.204z"/>
	</g>
</g>
<g>
	<g>
		<path d="M318.466,100.484c-12.959,0-26.867-3.693-37.261-11.235c-0.464,21.121,16.526,38.114,37.26,38.114
			c20.774,0,37.73-17.041,37.26-38.119C345.291,96.821,331.366,100.484,318.466,100.484z"/>
	</g>
</g>
<g>
	<g>
		<path d="M367.606,33.651c-8.145-14.081-27.259-26.049-49.14-26.049c-21.906,0-41.009,11.982-49.142,26.049
			c-2.444,4.227-4.142,9.104-4.142,14.03c0,4.34,1.121,7.866,3.079,10.736c2.94,4.309,7.773,7.132,13.551,8.98
			c0,9.515,17.661,19.535,36.653,19.535c19.134,0,36.639-10.109,36.639-19.531c5.775-1.845,10.608-4.663,13.552-8.963
			c1.968-2.873,3.092-6.408,3.092-10.758C371.749,42.753,370.051,37.879,367.606,33.651z M318.466,72.05
			c-3.424,0-7.254-5.535-7.254-12.942c0-7.408,3.83-12.945,7.254-12.945c3.424,0,7.254,5.536,7.254,12.945
			C325.72,66.515,321.89,72.05,318.466,72.05z M348.935,54.174h-13.608c-1.483-9.333-7.759-18.011-16.861-18.011
			c-8.399,0-15.221,7.688-16.861,18.011c-0.377,0-13.503,0.034-13.868-0.062c-8.112-2.139-8.112-4.932-8.112-6.432
			c0-2.173,0.807-4.595,2.279-7.058c5.375-8.997,19.741-18.577,36.562-18.577c16.82,0,31.186,9.58,36.562,18.577
			c1.472,2.463,2.279,4.885,2.279,7.058C357.307,51.646,352.901,53.159,348.935,54.174z"/>
	</g>
</g>
<g>
</g>
<g>
</g>
<g>
</g>
<g>
</g>
<g>
</g>
<g>
</g>
<g>
</g>
<g>
</g>
<g>
</g>
<g>
</g>
<g>
</g>
<g>
</g>
<g>
</g>
<g>
</g>
<g>
</g>
</svg>
