<?xml version="1.0" encoding="iso-8859-1"?>
<!-- Generator: Adobe Illustrator 16.0.0, SVG Export Plug-In . SVG Version: 6.00 Build 0)  -->
<!DOCTYPE svg PUBLIC "-//W3C//DTD SVG 1.1//EN" "http://www.w3.org/Graphics/SVG/1.1/DTD/svg11.dtd">
<svg version="1.1" id="Capa_1" xmlns="http://www.w3.org/2000/svg" xmlns:xlink="http://www.w3.org/1999/xlink" x="0px" y="0px"
	 width="800.149px" height="800.149px" viewBox="0 0 800.149 800.149" style="enable-background:new 0 0 800.149 800.149;"
	 xml:space="preserve">
<g>
	<g>
		<path d="M437.929,755.155h-21.794v-67.127c16.556-5.386,28.525-20.932,28.525-39.284c0-22.812-18.498-41.308-41.312-41.308
			c-22.813,0-41.311,18.495-41.311,41.308c0,18.354,11.97,33.898,28.525,39.284v67.127H368.77
			c-24.851,0-44.998,20.146-44.998,44.994h159.154C482.926,775.301,462.78,755.155,437.929,755.155z"/>
		<g>
			<path d="M664.75,755.155h-21.793v-67.127c16.557-5.386,28.524-20.932,28.524-39.284c0-22.812-18.495-41.308-41.312-41.308
				c-22.812,0-41.31,18.495-41.31,41.308c0,18.354,11.97,33.898,28.524,39.284v67.127h-21.791
				c-24.853,0-44.997,20.146-44.997,44.994h159.15C709.747,775.301,689.602,755.155,664.75,755.155z"/>
			<path d="M211.105,755.155h-21.793v-67.127c16.555-5.386,28.525-20.932,28.525-39.284c0-22.812-18.498-41.308-41.312-41.308
				s-41.31,18.495-41.31,41.308c0,18.354,11.97,33.898,28.525,39.284v67.127h-21.793c-24.852,0-44.998,20.146-44.998,44.994h159.152
				C256.102,775.301,235.957,755.155,211.105,755.155z"/>
		</g>
		<path d="M652.442,538.538c-44.324-235.28-173.709-377.524-405.643-444.416l50.002-62.221L90.403,0l75.575,194.696l62.105-77.284
			c30.067,15.069,49.996,37.895,59.421,68.16c30.606,98.286-51.729,255.533-119.971,335.8c-4.223,4.966-3.62,12.414,1.347,16.636
			c2.221,1.89,4.937,2.812,7.64,2.812c3.343,0,6.663-1.412,8.999-4.16c38.493-45.275,76.014-107.496,100.367-166.445
			c21.809-52.788,43.704-128.889,24.155-191.661c-0.993-3.191-2.085-6.308-3.266-9.359c24.542,25.735,43.299,58.03,56.531,97.214
			c26.061,77.162,28.24,172.041,28.24,262.607c0,6.521,5.285,11.805,11.802,11.805c6.521,0,11.805-5.284,11.805-11.805
			c0-92.53-2.276-189.608-29.482-270.161c-16.375-48.49-40.509-87.345-72.84-117.074
			c177.217,71.769,278.818,201.561,316.413,401.128c1.067,5.669,6.022,9.621,11.586,9.621c0.727,0,1.461-0.069,2.198-0.206
			C649.434,551.116,653.649,544.945,652.442,538.538z"/>
	</g>
</g>
<g>
</g>
<g>
</g>
<g>
</g>
<g>
</g>
<g>
</g>
<g>
</g>
<g>
</g>
<g>
</g>
<g>
</g>
<g>
</g>
<g>
</g>
<g>
</g>
<g>
</g>
<g>
</g>
<g>
</g>
</svg>
