<?xml version="1.0" encoding="iso-8859-1"?>
<!-- Generator: Adobe Illustrator 16.0.0, SVG Export Plug-In . SVG Version: 6.00 Build 0)  -->
<!DOCTYPE svg PUBLIC "-//W3C//DTD SVG 1.1//EN" "http://www.w3.org/Graphics/SVG/1.1/DTD/svg11.dtd">
<svg version="1.1" id="Capa_1" xmlns="http://www.w3.org/2000/svg" xmlns:xlink="http://www.w3.org/1999/xlink" x="0px" y="0px"
	 width="800px" height="800px" viewBox="0 0 800 800" style="enable-background:new 0 0 800 800;" xml:space="preserve">
<g>
	<g>
		<path d="M78.525,56.317v384.375c13.235-18.905,23.829-44.922,29.792-62.967c4.431-13.412,3.796-32.269,10.008-44.882
			c8.326-16.908,20.817-21.738,25.88-36.922c6.896-20.686-15.324-26.515,14.51-40.174c17.576-8.048,34.808,0.442,51.494,6.426
			c15.331,5.5,26.57,12.876,39.989,8.781c-13.636-31.024-26.517-45.558-31.34-61.845c-4.526-15.277,6.258-34.366,24.919-57.051
			c27.216-33.089,1.31-83.281-44.683-56.873c-24.251,13.925-48.435,74.578-66.793,59.103
			c-18.903-15.935-17.547-46.669-26.933-64.439c17.749-0.087,15.403,49.271,32.175,53.029c16.208,3.631,21.802-25.999,32.789-39.346
			c9.664-11.74,19.992-17.59,35.854-24.87c25.886-11.88,50.763,6.407,57.918,22.247c14.3,31.65-20.053,54.979-30.381,84.766
			c-6.417,18.502,4.314,29.006,17.878,41.924c7.62,7.256,15.996,15.276,24.569,22.978c1.392-1.663,2.809-3.405,4.276-5.306
			c10.565-13.703,30.267,7.396,47.984,10.097c16.645,2.536,21.93-21.342,20.923-37.078c-1.095-17.014-22.037-23.268-22.604-35.095
			c-0.762-15.838,9.455-18.487,16.381-33.131c1.769-3.746-2.64-34.196,10.156-38.879c42.407-15.521,41.123,26.454,69.807,27.019
			c20.54,0.406,29.993-22.516,48.886-30.067V56.317H78.525z"/>
		<path d="M194.013,288.575c-7.942,0.823-18.816-7.276-24.004-1.748c-6.799,7.245-2.013,22.636-5.216,31.498
			c-2.672,7.398-15.975,17.082-11.573,26.521c6.446,13.828,18.876,1.57,26.263-2.685c12.418-7.156,63.461,4.374,60.352-20.917
			c-1.539-12.507-18.328-6.172-23.338-15.999c-5.259-10.315,7.335-23.346-9.442-23.346
			C198.544,281.898,197.657,288.197,194.013,288.575z"/>
		<path d="M151.994,371.246c-15.096,2.67-34.748,31.37-27.301,41.981c7.714,10.998,40.882-15.697,38.62-25.156
			c-1.795-7.513,5.383-10.628,1.335-16.553C163.631,370.03,155.108,370.695,151.994,371.246z"/>
		<path d="M528.296,261.444V0H22.208v506.089h217.377c-0.714,7.993-1.098,16.08-1.098,24.259
			C238.487,679.271,359.214,800,508.138,800s269.653-120.729,269.653-269.652C777.792,388.204,667.805,271.755,528.296,261.444z
			 M54.918,473.379V32.71h440.668v228.285c-123.767,5.672-225.751,94.775-251.05,212.383L54.918,473.379L54.918,473.379z
			 M508.138,769.519c-132.088,0-239.17-107.079-239.17-239.171c0-8.188,0.415-16.279,1.218-24.259
			c1.123-11.147,3.028-22.064,5.628-32.71c24.601-100.666,112.904-176.349,219.772-181.875c4.155-0.215,8.342-0.327,12.552-0.327
			c6.791,0,13.512,0.299,20.158,0.854c122.655,10.238,219.01,113.018,219.01,238.316
			C747.306,662.438,640.23,769.519,508.138,769.519z"/>
		<path d="M532.08,506.409c-8.714-8.714-20.994-11.683-32.143-8.908l17.598-17.598l-142.016-82.179l82.177,142.016l17.595-17.596
			c-2.771,11.146,0.197,23.43,8.911,32.143c8.714,8.714,20.99,11.68,32.139,8.908l-17.593,17.596l142.014,82.178l-82.179-142.015
			l-17.593,17.594C543.757,527.401,540.79,515.122,532.08,506.409z M497.194,541.295c-6.046-6.046-6.046-15.849,0-21.895
			c6.044-6.045,15.848-6.047,21.895,0c6.046,6.046,6.043,15.849,0,21.895C513.042,547.34,503.241,547.343,497.194,541.295z
			 M616.774,638.983l-103.793-60.062l43.732-43.731L616.774,638.983z"/>
	</g>
</g>
<g>
</g>
<g>
</g>
<g>
</g>
<g>
</g>
<g>
</g>
<g>
</g>
<g>
</g>
<g>
</g>
<g>
</g>
<g>
</g>
<g>
</g>
<g>
</g>
<g>
</g>
<g>
</g>
<g>
</g>
</svg>
