<?xml version="1.0" encoding="iso-8859-1"?>
<!-- Generator: Adobe Illustrator 19.0.0, SVG Export Plug-In . SVG Version: 6.00 Build 0)  -->
<svg version="1.1" id="Layer_1" xmlns="http://www.w3.org/2000/svg" xmlns:xlink="http://www.w3.org/1999/xlink" x="0px" y="0px"
	 viewBox="0 0 511.999 511.999" style="enable-background:new 0 0 511.999 511.999;" xml:space="preserve">
<g>
	<g>
		<path d="M376.037,120.45c-1.881-7.777-9.713-12.554-17.487-10.675l-49.556,11.987c11.572-16.391,10.785-15.182,11.485-16.536
			l12.627-3.054l-0.839-15.522c-0.434-8.03-7.296-14.189-15.326-13.755l-94.885,5.129c-4.186,0.227-8.088,1.646-11.342,3.952
			l-69.945,34.732l-89.456-8.423c-9.041-0.852-17.063,5.789-17.914,14.831c-0.852,9.042,5.788,17.064,14.83,17.915l94.118,8.86
			c2.939,0.279,6.025-0.238,8.856-1.643l43.122-21.413l50.892,10.605c1.66-3.314,4.017-6.264,6.944-8.601l37.349-29.719
			l-26.426,37.431c-3.48,4.93-3.54,11.503-0.149,16.496c3.385,4.983,9.51,7.362,15.39,5.941l87.038-21.053
			C373.139,136.056,377.919,128.227,376.037,120.45z"/>
	</g>
</g>
<g>
	<g>
		<path d="M389.451,64.655c-0.821-15.184-13.795-26.828-28.979-26.007c-15.184,0.821-26.828,13.795-26.007,28.979
			c0.639,11.832,8.658,21.511,19.351,24.822c0.592-6.276,5.382-11.645,12.001-12.615l21.587-3.165
			C388.932,72.983,389.68,68.906,389.451,64.655z"/>
	</g>
</g>
<g>
	<g>
		<path d="M511.936,72.678c-0.477-3.249-3.497-5.494-6.743-5.019l-8.83,1.294l-0.754-5.146c-0.475-3.246-3.494-5.494-6.743-5.019
			c-3.248,0.475-5.494,3.495-5.019,6.743l0.754,5.145L367,87.918c-3.694,0.542-6.111,4.391-4.643,8.074
			c9.389,0.129,18.079,5.034,23.084,12.875l62.503-9.163c3.248-0.477,5.494-3.495,5.019-6.743c-0.371-2.533-2.292-4.45-4.658-4.949
			l58.612-8.592C510.165,78.945,512.411,75.925,511.936,72.678z"/>
	</g>
</g>
<g>
	<g>
		<path d="M342.714,434.446c-1.883-7.777-9.716-12.554-17.489-10.675l-49.556,11.987c11.572-16.391,10.785-15.182,11.485-16.536
			l12.627-3.054l-0.839-15.522c-0.434-8.03-7.296-14.189-15.326-13.755l-94.885,5.129c-4.186,0.227-8.088,1.646-11.342,3.952
			l-69.945,34.732l-89.456-8.421c-9.041-0.852-17.063,5.789-17.914,14.831c-0.852,9.042,5.789,17.063,14.831,17.914l94.118,8.86
			c2.939,0.279,6.025-0.238,8.856-1.643l43.122-21.413l50.892,10.605c1.66-3.314,4.017-6.264,6.944-8.601l37.35-29.719
			l-26.426,37.431c-3.48,4.93-3.54,11.503-0.149,16.496c3.385,4.983,9.51,7.362,15.39,5.941l87.038-21.053
			C339.815,450.053,344.596,442.223,342.714,434.446z"/>
	</g>
</g>
<g>
	<g>
		<path d="M356.124,378.651c-0.82-15.183-13.795-26.827-28.979-26.006c-15.184,0.821-26.828,13.795-26.007,28.979
			c0.64,11.831,8.658,21.511,19.351,24.821c0.592-6.276,5.382-11.645,12.001-12.615l21.587-3.165
			C355.605,386.979,356.353,382.903,356.124,378.651z"/>
	</g>
</g>
<g>
	<g>
		<path d="M478.61,386.675c-0.477-3.248-3.497-5.494-6.743-5.018l-8.83,1.294l-0.754-5.145c-0.475-3.246-3.494-5.494-6.743-5.019
			c-3.248,0.475-5.494,3.495-5.019,6.743l0.754,5.145l-117.601,17.24c-3.694,0.542-6.111,4.391-4.643,8.074
			c9.389,0.129,18.079,5.034,23.084,12.876l62.503-9.163c3.248-0.477,5.494-3.495,5.019-6.743c-0.371-2.533-2.292-4.45-4.658-4.949
			l58.612-8.592C476.84,392.941,479.086,389.923,478.61,386.675z"/>
	</g>
</g>
<g>
	<g>
		<path d="M358.265,281.899c-1.881-7.777-9.713-12.554-17.487-10.675l-49.556,11.987c11.572-16.391,10.785-15.182,11.485-16.536
			l12.627-3.054l-0.839-15.522c-0.434-8.03-7.296-14.189-15.326-13.755l-94.885,5.129c-4.186,0.227-8.088,1.646-11.342,3.952
			l-69.946,34.732l-89.456-8.421c-9.041-0.852-17.063,5.789-17.914,14.831c-0.852,9.042,5.788,17.063,14.83,17.914l94.118,8.86
			c2.939,0.279,6.025-0.238,8.856-1.643l43.122-21.413l50.892,10.605c1.66-3.314,4.017-6.264,6.944-8.601l37.35-29.719
			l-26.426,37.431c-3.48,4.93-3.54,11.503-0.149,16.496c3.385,4.983,9.51,7.362,15.39,5.941l87.038-21.053
			C355.366,297.505,360.146,289.676,358.265,281.899z"/>
	</g>
</g>
<g>
	<g>
		<path d="M371.676,226.103c-0.82-15.183-13.795-26.826-28.979-26.006c-15.184,0.821-26.828,13.795-26.007,28.979
			c0.64,11.831,8.658,21.511,19.351,24.821c0.592-6.276,5.382-11.645,12.001-12.615l21.587-3.165
			C371.157,234.431,371.905,230.354,371.676,226.103z"/>
	</g>
</g>
<g>
	<g>
		<path d="M494.162,234.127c-0.477-3.248-3.497-5.493-6.743-5.018l-8.83,1.294l-0.754-5.146c-0.475-3.246-3.494-5.494-6.743-5.019
			c-3.248,0.475-5.494,3.495-5.019,6.743l0.754,5.145l-117.601,17.241c-3.694,0.541-6.111,4.391-4.643,8.074
			c9.389,0.129,18.079,5.034,23.084,12.876l62.503-9.163c3.248-0.477,5.494-3.495,5.019-6.743c-0.371-2.533-2.292-4.45-4.658-4.949
			l58.612-8.592C492.391,240.393,494.638,237.375,494.162,234.127z"/>
	</g>
</g>
<g>
</g>
<g>
</g>
<g>
</g>
<g>
</g>
<g>
</g>
<g>
</g>
<g>
</g>
<g>
</g>
<g>
</g>
<g>
</g>
<g>
</g>
<g>
</g>
<g>
</g>
<g>
</g>
<g>
</g>
</svg>
