<?xml version="1.0" encoding="iso-8859-1"?>
<!-- Generator: Adobe Illustrator 18.0.0, SVG Export Plug-In . SVG Version: 6.00 Build 0)  -->
<!DOCTYPE svg PUBLIC "-//W3C//DTD SVG 1.1//EN" "http://www.w3.org/Graphics/SVG/1.1/DTD/svg11.dtd">
<svg version="1.1" id="Capa_1" xmlns="http://www.w3.org/2000/svg" xmlns:xlink="http://www.w3.org/1999/xlink" x="0px" y="0px"
	 viewBox="0 0 373.998 373.998" style="enable-background:new 0 0 373.998 373.998;" xml:space="preserve">
<g>
	<path d="M165.117,284.623c-0.326-3.021-3.046-5.218-6.059-4.877c-3.021,0.326-5.204,3.039-4.877,6.059l0.115,1.024
		c0.328,2.8,2.704,4.861,5.456,4.861c0.214,0,0.43-0.013,0.646-0.038c3.017-0.354,5.177-3.086,4.823-6.103L165.117,284.623z"/>
	<path d="M192.67,190.365c0.894,0.543,1.879,0.802,2.854,0.802c1.856,0,3.669-0.94,4.704-2.643
		c2.086-3.429,4.095-6.979,5.972-10.551c1.413-2.688,0.38-6.014-2.31-7.427c-2.69-1.417-6.015-0.379-7.427,2.31
		c-1.771,3.369-3.667,6.718-5.634,9.951C189.251,185.403,190.075,188.786,192.67,190.365z"/>
	<path d="M206.31,165.39c0.696,0.293,1.419,0.432,2.131,0.432c2.146,0,4.187-1.265,5.071-3.368l0.393-0.94
		c1.159-2.808-0.178-6.023-2.985-7.183s-6.023,0.178-7.183,2.985l-0.363,0.872C202.195,160.988,203.51,164.212,206.31,165.39z"/>
	<path d="M220.212,121.488c0.3,0.049,0.598,0.072,0.893,0.072c2.647,0,4.981-1.917,5.422-4.615l0.159-0.998
		c0.474-3.001-1.576-5.816-4.576-6.289c-2.995-0.474-5.816,1.575-6.289,4.576l-0.151,0.939
		C215.181,118.171,217.214,120.999,220.212,121.488z"/>
	<path d="M212.865,148.978c0.551,0.175,1.108,0.258,1.658,0.258c2.335,0,4.502-1.5,5.242-3.846
		c1.213-3.838,2.322-7.758,3.299-11.652c0.738-2.947-1.051-5.935-3.997-6.673c-2.953-0.737-5.935,1.052-6.673,3.997
		c-0.923,3.682-1.972,7.388-3.117,11.016C208.362,144.974,209.969,148.064,212.865,148.978z"/>
	<path d="M175.272,227.001c1.646-3.026,3.555-6.222,5.833-9.768c1.642-2.556,0.9-5.958-1.655-7.601
		c-2.554-1.641-5.957-0.901-7.601,1.655c-2.423,3.772-4.465,7.193-6.239,10.457c-1.452,2.668-0.466,6.008,2.203,7.459
		c0.835,0.454,1.735,0.67,2.623,0.67C172.387,229.875,174.275,228.835,175.272,227.001z"/>
	<path d="M182.694,204.957c0.953,0.656,2.039,0.971,3.114,0.971c1.749,0,3.469-0.833,4.535-2.382l0.557-0.809
		c1.723-2.503,1.091-5.927-1.411-7.649c-2.504-1.726-5.928-1.09-7.649,1.411l-0.557,0.809
		C179.561,199.81,180.192,203.234,182.694,204.957z"/>
	<path d="M165.453,234.401c-2.874-0.978-5.999,0.563-6.977,3.439c-0.113,0.335-0.225,0.67-0.333,1.006
		c-0.936,2.89,0.647,5.991,3.538,6.927c0.563,0.183,1.134,0.27,1.695,0.27c2.32,0,4.478-1.48,5.231-3.808
		c0.093-0.285,0.187-0.571,0.284-0.857C169.869,238.501,168.329,235.377,165.453,234.401z"/>
	<path d="M158.754,274.046c0.037,0.001,0.075,0.001,0.112,0.001c2.986,0,5.437-2.391,5.497-5.39
		c0.076-3.81,0.354-7.556,0.827-11.134c0.396-3.012-1.723-5.775-4.733-6.173c-3.012-0.402-5.775,1.723-6.173,4.733
		c-0.524,3.981-0.834,8.138-0.919,12.353C153.305,271.474,155.717,273.985,158.754,274.046z"/>
	<path d="M373.998,208.84l-7.889-7.666c-44.925,46.223-131.624,51.952-132.494,52.005l-9.029,0.544l6.42,10.753
		c-7.328-0.879-19.171-3.279-35.907-9.577c7.077-6.377,14.127-14.074,18.685-19.274l5.285,8.854l4.186-1.38
		c1.034-0.341,25.64-8.568,53.699-27.976c37.34-25.828,62.739-59.297,73.451-96.789l-10.576-3.021
		c-5.834,20.42-15.783,37.699-27.21,52.06V92.494c0-3.037-2.463-5.5-5.5-5.5H94.43c-10.261-12.7-20.086-21.284-28.132-26.989
		l-6.363,8.973c52.581,37.284,71.572,122.071,71.758,122.923l1.926,8.839l9.187-7.622c0.351,9.12,0.153,22.988-2.897,36.313
		c-7.694-6.963-16.133-12.296-22.038-15.627l7.604-6.309l-2.253-4.001c-0.377-0.67-9.47-16.626-28.945-34.798
		c-17.921-16.721-48.436-38.55-92.042-47.59L0,131.876c17.861,3.703,33.388,9.682,46.618,16.546v160.071c0,3.037,2.463,5.5,5.5,5.5
		h255c3.037,0,5.5-2.463,5.5-5.5V246.77C343.918,234.92,362.969,220.188,373.998,208.84z M57.618,258.475
		c16.099-0.942,32.551,6.818,41.989,19.934c3.098,4.305,5.509,9.125,8.062,14.229c1.721,3.441,3.485,6.944,5.497,10.355H57.618
		V258.475z M301.618,302.994H168.237c-0.113-0.504-0.231-1.013-0.338-1.51c-0.641-2.969-3.564-4.857-6.537-4.215
		c-2.697,0.583-4.495,3.052-4.322,5.725h-30.669c-3.473-4.526-6.102-9.753-8.865-15.276c-2.634-5.267-5.358-10.713-8.972-15.733
		c-11.465-15.933-31.315-25.461-50.917-24.535v-92.824c11.885,7.258,21.487,14.994,28.837,21.819
		c12.853,11.935,20.99,22.99,24.744,28.598l-13.465,11.176l7.964,3.643c0.201,0.092,20.245,9.361,32.771,23.742l6.238,7.162
		l3.106-8.976c9.315-26.91,5.328-59.07,5.153-60.426l-1.274-9.914l-11.435,9.487c-2.454-8.914-7.092-23.875-14.498-40.896
		c-7.36-16.912-15.25-30.747-23.096-42.048h114.988c-0.002,0.036-0.003,0.072-0.006,0.107c-0.211,3.03,2.075,5.657,5.105,5.867
		c0.13,0.01,0.258,0.014,0.387,0.014c2.863,0,5.279-2.219,5.48-5.119c0.02-0.289,0.035-0.58,0.054-0.869h72.946v81.922
		c-10.279,10.678-21.034,19.301-30.655,25.976c-20.275,14.066-39.025,22.125-47.048,25.246l-8.628-14.453l-4.963,6.05
		c-0.166,0.202-16.745,20.339-29.152,29.405l-7.89,5.766l9.022,3.753c30.504,12.689,48.606,14.457,55.79,14.289
		c6.826-0.16,11.772-1.336,11.772-1.336l-6.735-11.282c9.185-1.055,24.682-3.337,42.639-8.038c5.57-1.458,10.84-3.018,15.848-4.651
		V302.994z"/>
</g>
<g>
</g>
<g>
</g>
<g>
</g>
<g>
</g>
<g>
</g>
<g>
</g>
<g>
</g>
<g>
</g>
<g>
</g>
<g>
</g>
<g>
</g>
<g>
</g>
<g>
</g>
<g>
</g>
<g>
</g>
</svg>
