<svg height="480pt" viewBox="0 -32 480.0076 480" width="480pt" xmlns="http://www.w3.org/2000/svg"><path d="m367.050781 132.210938c-1.78125-3.308594-5.625-4.933594-9.238281-3.902344-38.480469 10.027344-78.046875 15.296875-117.808594 15.695312-37.753906-.398437-75.335937-5.15625-112-14.175781v-33.824219h120c4.417969 0 8-3.582031 8-8v-64c0-4.417968-3.582031-8-8-8h-120v-8c0-4.417968-3.582031-7.99999975-8-7.99999975-4.417968 0-8 3.58203175-8 7.99999975v125.984375l-111.046875 206.222657c-1.335937 2.480468-1.269531 5.480468.175781 7.898437 1.445313 2.417969 4.054688 3.894531 6.871094 3.894531h464c2.816406 0 5.425782-1.476562 6.871094-3.894531s1.511719-5.417969.175781-7.898437zm-127.046875-100.207032v48h-112v-16h40c4.417969 0 8-3.582031 8-8 0-4.417968-3.582031-8-8-8h-40v-16zm-120 120.871094 98.609375 183.128906h-37.808593l-53.753907-99.792968c-.382812-.554688-.796875-1.089844-1.238281-1.597657-.289062-.3125-.601562-.597656-.9375-.859375-.34375-.269531-.707031-.507812-1.09375-.710937-.382812-.210938-.785156-.390625-1.203125-.527344-.414063-.132813-.835937-.242187-1.261719-.328125-.433594-.066406-.875-.101562-1.3125-.09375-.441406-.003906-.882812.03125-1.320312.101562-.421875.089844-.84375.199219-1.253906.328126-.417969.140624-.824219.316406-1.210938.527343-.378906.203125-.746094.441407-1.085938.703125-.335937.265625-.648437.558594-.9375.875-.441406.507813-.855468 1.042969-1.238281 1.597656l-53.753906 99.777344h-37.808594zm-8 118.863281v64.265625h-34.609375zm16 64.265625v-64.265625l34.609375 64.265625zm108.800782 0-101.207032-187.921875c34.285156 7.644531 69.28125 11.640625 104.40625 11.921875 39.085938-.332031 78-5.25 115.945313-14.648437l102.664062 190.648437zm0 0"/><path d="m200.003906 64.003906h8c4.417969 0 8-3.582031 8-8 0-4.417968-3.582031-8-8-8h-8c-4.417968 0-8 3.582032-8 8 0 4.417969 3.582032 8 8 8zm0 0"/><path d="m368.003906 320.003906h48c4.417969 0 8-3.582031 8-8 0-4.417968-3.582031-8-8-8h-48c-4.417968 0-8 3.582032-8 8 0 4.417969 3.582032 8 8 8zm0 0"/><path d="m336.003906 304.003906h-8c-4.417968 0-8 3.582032-8 8 0 4.417969 3.582032 8 8 8h8c4.417969 0 8-3.582031 8-8 0-4.417968-3.582031-8-8-8zm0 0"/><path d="m264.003906 304.003906h-8c-4.417968 0-8 3.582032-8 8 0 4.417969 3.582032 8 8 8h8c4.417969 0 8-3.582031 8-8 0-4.417968-3.582031-8-8-8zm0 0"/><path d="m40.003906 384.003906h-8c-4.417968 0-8 3.582032-8 8 0 4.417969 3.582032 8 8 8h8c4.417969 0 8-3.582031 8-8 0-4.417968-3.582031-8-8-8zm0 0"/><path d="m96.003906 400.003906h-8c-4.417968 0-8 3.582032-8 8 0 4.417969 3.582032 8 8 8h8c4.417969 0 8-3.582031 8-8 0-4.417968-3.582031-8-8-8zm0 0"/><path d="m176.003906 384.003906h-8c-4.417968 0-8 3.582032-8 8 0 4.417969 3.582032 8 8 8h8c4.417969 0 8-3.582031 8-8 0-4.417968-3.582031-8-8-8zm0 0"/><path d="m216.003906 400.003906h-8c-4.417968 0-8 3.582032-8 8 0 4.417969 3.582032 8 8 8h8c4.417969 0 8-3.582031 8-8 0-4.417968-3.582031-8-8-8zm0 0"/><path d="m288.003906 392.003906h-8c-4.417968 0-8 3.582032-8 8 0 4.417969 3.582032 8 8 8h8c4.417969 0 8-3.582031 8-8 0-4.417968-3.582031-8-8-8zm0 0"/><path d="m408.003906 384.003906h-8c-4.417968 0-8 3.582032-8 8 0 4.417969 3.582032 8 8 8h8c4.417969 0 8-3.582031 8-8 0-4.417968-3.582031-8-8-8zm0 0"/><path d="m448.003906 400.003906h-8c-4.417968 0-8 3.582032-8 8 0 4.417969 3.582032 8 8 8h8c4.417969 0 8-3.582031 8-8 0-4.417968-3.582031-8-8-8zm0 0"/></svg>