<?xml version="1.0" encoding="iso-8859-1"?>
<!-- Generator: Adobe Illustrator 17.1.0, SVG Export Plug-In . SVG Version: 6.00 Build 0)  -->
<!DOCTYPE svg PUBLIC "-//W3C//DTD SVG 1.1//EN" "http://www.w3.org/Graphics/SVG/1.1/DTD/svg11.dtd">
<svg version="1.1" id="Capa_1" xmlns="http://www.w3.org/2000/svg" xmlns:xlink="http://www.w3.org/1999/xlink" x="0px" y="0px"
	 viewBox="0 0 475.592 475.592" style="enable-background:new 0 0 475.592 475.592;" xml:space="preserve">
<path d="M403.952,226.551c-25.742-15.578-44.603-43.067-61.197-67.767c22.29-33.172,42.425-71.382,63.204-119.904
	c0.899-2.1,0.261-4.542-1.55-5.933c-1.812-1.392-4.335-1.379-6.132,0.031c-48.18,37.793-93.065,20.962-146.737-4.969
	c-52.08-25.162-99.506-43.18-149.173-9.718v-2.028c0-2.761-2.239-5-5-5H74.229c-2.761,0-5,2.239-5,5v454.33c0,2.761,2.239,5,5,5
	h23.138c2.761,0,5-2.239,5-5v-246.1c25.306-19.128,49.745-23.3,75.075-19.147c0.628,0.284,1.32,0.452,2.054,0.452
	c0.118,0,0.228-0.027,0.344-0.035c21.423,3.941,43.52,13.655,67.35,25.168c31.735,15.333,61.736,28.016,91.575,28.014
	c21.78-0.001,43.477-6.761,65.685-24.181c1.292-1.014,2.004-2.597,1.905-4.236C406.254,228.887,405.356,227.401,403.952,226.551z
	 M79.229,465.592V227.027h13.138v238.565H79.229z M251.54,221.926c-23.061-11.142-45.209-20.882-67.044-25.375V56.016
	c0-2.761-2.239-5-5-5s-5,2.239-5,5v138.853c-24.045-3.091-47.819,0.96-72.129,17.339V65.691c0-2.761-2.239-5-5-5s-5,2.239-5,5
	v151.336H79.229V21.262h13.138v14.41c0,2.761,2.239,5,5,5s5-2.239,5-5v-5.098c24.324-18.385,47.847-22.955,72.129-19.594v12.717
	c0,2.761,2.239,5,5,5s5-2.239,5-5v-10.91c19.97,4.412,40.586,13.544,62.693,24.225c31.735,15.333,61.735,28.016,91.575,28.015
	c16.969-0.001,33.89-4.105,51.038-14.157c-18.669,41.782-37.036,75.485-57.208,105.087c-1.15,1.688-1.158,3.907-0.019,5.603
	l0.53,0.79c16.204,24.134,34.41,51.251,59.51,68.748C346.559,263.35,303.101,246.837,251.54,221.926z"/>
<g>
</g>
<g>
</g>
<g>
</g>
<g>
</g>
<g>
</g>
<g>
</g>
<g>
</g>
<g>
</g>
<g>
</g>
<g>
</g>
<g>
</g>
<g>
</g>
<g>
</g>
<g>
</g>
<g>
</g>
</svg>
