<svg height="550pt" viewBox="-17 -36 550.66655 550" width="550pt" xmlns="http://www.w3.org/2000/svg"><path d="m19.371094 124.636719c-4.054688 0-7.65625-2.902344-8.386719-7.035157-.824219-4.636718 2.261719-9.0625 6.902344-9.886718l488.34375-86.820313c4.640625-.835937 9.070312 2.269531 9.886719 6.902344.824218 4.632813-2.265626 9.058594-6.90625 9.882813l-488.339844 86.820312c-.5.09375-1.007813.136719-1.5.136719zm0 0"/><path d="m496.882812 304.472656c-.550781 0-1.117187-.050781-1.683593-.164062l-488.34375-97.671875c-4.613281-.921875-7.609375-5.414063-6.6875-10.03125.917969-4.617188 5.347656-7.621094 10.035156-6.691407l488.34375 97.667969c4.617187.925781 7.613281 5.421875 6.6875 10.039063-.808594 4.050781-4.371094 6.851562-8.351563 6.851562zm0 0"/><path d="m19.371094 467.257812c-4.054688 0-7.65625-2.902343-8.386719-7.039062-.824219-4.632812 2.261719-9.054688 6.902344-9.882812l488.34375-86.820313c4.640625-.84375 9.070312 2.265625 9.886719 6.902344.824218 4.632812-2.265626 9.058593-6.90625 9.882812l-488.339844 86.820313c-.5.09375-1.007813.136718-1.5.136718zm0 0"/><path d="m62.78125 146.339844c-1.625 0-3.265625-.457032-4.722656-1.429688-3.921875-2.609375-4.980469-7.910156-2.367188-11.828125l43.410156-65.113281c2.601563-3.917969 7.886719-4.984375 11.828126-2.363281 3.917968 2.613281 4.976562 7.90625 2.359374 11.824219l-43.410156 65.113281c-1.636718 2.464843-4.339844 3.796875-7.097656 3.796875zm0 0"/><path d="m106.242188 146.316406c-2.757813 0-5.457032-1.328125-7.097657-3.789062l-43.472656-65.066406c-2.625-3.917969-1.566406-9.207032 2.347656-11.828126 3.933594-2.621093 9.214844-1.5625 11.828125 2.351563l43.472656 65.066406c2.625 3.917969 1.566407 9.210938-2.347656 11.832031-1.464844.964844-3.109375 1.433594-4.730468 1.433594zm0 0"/><path d="m236.417969 113.785156c-1.625 0-3.265625-.460937-4.71875-1.433594-3.921875-2.609374-4.980469-7.90625-2.367188-11.824218l43.402344-65.117188c2.597656-3.917968 7.894531-4.988281 11.824219-2.359375 3.925781 2.609375 4.976562 7.902344 2.363281 11.820313l-43.402344 65.117187c-1.636719 2.464844-4.34375 3.796875-7.101562 3.796875zm0 0"/><path d="m279.875 113.761719c-2.753906 0-5.453125-1.332031-7.09375-3.792969l-43.484375-65.0625c-2.617187-3.914062-1.566406-9.207031 2.351563-11.828125 3.929687-2.617187 9.207031-1.558594 11.824218 2.351563l43.484375 65.066406c2.625 3.910156 1.566407 9.210937-2.347656 11.832031-1.460937.964844-3.109375 1.433594-4.734375 1.433594zm0 0"/><path d="m410.046875 81.226562c-1.625 0-3.261719-.464843-4.722656-1.433593-3.921875-2.609375-4.976563-7.90625-2.359375-11.824219l43.402344-65.109375c2.613281-3.917969 7.890624-4.984375 11.828124-2.363281 3.921876 2.609375 4.980469 7.902344 2.367188 11.820312l-43.410156 65.113282c-1.644532 2.464843-4.347656 3.796874-7.105469 3.796874zm0 0"/><path d="m453.507812 81.207031c-2.757812 0-5.457031-1.332031-7.09375-3.789062l-43.480468-65.070313c-2.621094-3.917968-1.5625-9.207031 2.351562-11.828125 3.921875-2.625 9.21875-1.558593 11.824219 2.351563l43.476563 65.070312c2.625 3.917969 1.566406 9.207032-2.347657 11.828125-1.457031.96875-3.105469 1.4375-4.730469 1.4375zm0 0"/><path d="m62.78125 261.0625c-1.625 0-3.265625-.460938-4.722656-1.433594-3.921875-2.609375-4.980469-7.902344-2.367188-11.820312l43.410156-65.117188c2.601563-3.917968 7.886719-4.988281 11.828126-2.363281 3.917968 2.609375 4.976562 7.90625 2.359374 11.824219l-43.410156 65.117187c-1.636718 2.460938-4.339844 3.792969-7.097656 3.792969zm0 0"/><path d="m106.242188 261.042969c-2.757813 0-5.457032-1.332031-7.097657-3.789063l-43.476562-65.070312c-2.621094-3.917969-1.566407-9.207032 2.351562-11.824219 3.925781-2.621094 9.214844-1.558594 11.820313 2.351563l43.480468 65.066406c2.621094 3.917968 1.5625 9.210937-2.351562 11.828125-1.460938.972656-3.105469 1.4375-4.726562 1.4375zm0 0"/><path d="m236.417969 282.765625c-1.625 0-3.265625-.457031-4.71875-1.429687-3.921875-2.609376-4.980469-7.90625-2.367188-11.824219l43.402344-65.113281c2.597656-3.925782 7.894531-4.984376 11.824219-2.363282 3.925781 2.609375 4.976562 7.90625 2.363281 11.824219l-43.402344 65.113281c-1.636719 2.460938-4.34375 3.792969-7.101562 3.792969zm0 0"/><path d="m279.875 282.742188c-2.753906 0-5.453125-1.328126-7.09375-3.785157l-43.484375-65.066406c-2.617187-3.910156-1.566406-9.207031 2.351563-11.824219 3.929687-2.625 9.207031-1.5625 11.824218 2.351563l43.484375 65.0625c2.625 3.914062 1.566407 9.207031-2.347656 11.828125-1.460937.96875-3.109375 1.433594-4.734375 1.433594zm0 0"/><path d="m410.046875 315.324219c-1.625 0-3.261719-.457031-4.722656-1.429688-3.921875-2.609375-4.976563-7.90625-2.359375-11.824219l43.402344-65.113281c2.613281-3.914062 7.890624-4.988281 11.828124-2.367187 3.921876 2.613281 4.980469 7.910156 2.367188 11.828125l-43.410156 65.113281c-1.644532 2.460938-4.347656 3.792969-7.105469 3.792969zm0 0"/><path d="m453.507812 315.300781c-2.757812 0-5.457031-1.328125-7.09375-3.785156l-43.480468-65.070313c-2.621094-3.917968-1.5625-9.207031 2.351562-11.828124 3.921875-2.617188 9.21875-1.558594 11.824219 2.355468l43.476563 65.066406c2.625 3.917969 1.566406 9.207032-2.347657 11.828126-1.457031.96875-3.105469 1.433593-4.730469 1.433593zm0 0"/><path d="m410.046875 423.847656c-1.625 0-3.261719-.460937-4.722656-1.433594-3.921875-2.609374-4.976563-7.910156-2.359375-11.828124l43.402344-65.113282c2.613281-3.917968 7.890624-4.984375 11.828124-2.359375 3.921876 2.609375 4.980469 7.902344 2.367188 11.820313l-43.410156 65.113281c-1.644532 2.464844-4.347656 3.800781-7.105469 3.800781zm0 0"/><path d="m453.507812 423.824219c-2.757812 0-5.457031-1.328125-7.09375-3.792969l-43.480468-65.0625c-2.621094-3.917969-1.5625-9.207031 2.351562-11.828125 3.921875-2.617187 9.21875-1.558594 11.824219 2.351563l43.476563 65.066406c2.625 3.917968 1.566406 9.210937-2.347657 11.832031-1.457031.964844-3.105469 1.433594-4.730469 1.433594zm0 0"/><path d="m236.417969 456.40625c-1.625 0-3.265625-.460938-4.71875-1.433594-3.921875-2.609375-4.980469-7.902344-2.367188-11.820312l43.402344-65.121094c2.597656-3.917969 7.894531-4.984375 11.824219-2.359375 3.925781 2.609375 4.976562 7.902344 2.363281 11.820313l-43.402344 65.121093c-1.636719 2.460938-4.34375 3.792969-7.101562 3.792969zm0 0"/><path d="m279.875 456.382812c-2.753906 0-5.453125-1.332031-7.09375-3.789062l-43.484375-65.066406c-2.617187-3.917969-1.566406-9.210938 2.351563-11.832032 3.929687-2.625 9.207031-1.566406 11.824218 2.351563l43.484375 65.070313c2.625 3.914062 1.566407 9.210937-2.347656 11.832031-1.460937.964843-3.109375 1.433593-4.734375 1.433593zm0 0"/><path d="m73.628906 478.105469c-1.621094 0-3.261718-.464844-4.71875-1.429688-3.921875-2.617187-4.980468-7.910156-2.367187-11.828125l43.410156-65.105468c2.601563-3.925782 7.886719-4.988282 11.824219-2.367188 3.921875 2.609375 4.980468 7.902344 2.363281 11.828125l-43.410156 65.105469c-1.636719 2.464844-4.347657 3.796875-7.101563 3.796875zm0 0"/><path d="m117.089844 478.085938c-2.753906 0-5.453125-1.328126-7.09375-3.785157l-43.476563-65.070312c-2.621093-3.917969-1.566406-9.210938 2.347657-11.832031 3.929687-2.621094 9.21875-1.5625 11.824218 2.355468l43.480469 65.066406c2.621094 3.917969 1.5625 9.210938-2.351563 11.832032-1.460937.964844-3.105468 1.433594-4.730468 1.433594zm0 0"/></svg>