<svg id="Capa_1" enable-background="new 0 0 510.605 510.605" height="512" viewBox="0 0 510.605 510.605" width="512" xmlns="http://www.w3.org/2000/svg"><path d="m61.829 89.257-50.051 6.815c1.291 20.241 18.108 36.261 38.675 36.261 21.409 0 38.764-17.355 38.764-38.764 0-2.718-.282-5.371-.815-7.931l-7.62 1.037z"/><path d="m211.594 111.299c-4.647-9.227-15.894-12.938-25.118-8.291l-76.129 38.344-57.251 9.78 11.153-5.627h-37.349c-14.462 0-26.3 11.724-26.3 26.187v300.228c-.035 12.396 9.638 22.473 22.034 22.508h.065c12.366 0 22.408-10.008 22.443-22.381l.469-165.937c0-.021-.001-.042-.001-.063h9.68l.013 165.938c.001 12.396 10.051 22.444 22.446 22.443 12.396-.001 22.444-10.051 22.443-22.446-.192-236.119.742-32.9 0-278.741l-40.798-5.234 60.013-10.251c1.831-.313 3.605-.897 5.264-1.732l78.631-39.604c9.227-4.649 12.939-15.895 8.292-25.121z"/><path d="m4.354 72.962.693 5.091c.253 1.858 1.843 3.206 3.667 3.206.167 0 .335-.011.505-.034l50.578-6.887 18.954-2.581 17.69-2.408c1.452-.198 2.737-1.166 3.171-2.565.618-1.99-.479-4.014-2.36-4.641l-13.451-4.49c-4.471-1.492-7.706-5.396-8.341-10.066l-1.493-16.965c-.139-1.574-.814-3.09-2.017-4.115-1.115-.95-2.468-1.414-3.811-1.414-1.194 0-2.381.367-3.386 1.083l-28.998 20.666c-8.272 5.895-17.739 9.899-27.731 11.729l-3.083.564c-4.37.8-6.397 5.896-3.771 9.479z"/><path d="m229.704 43.186c0-2.73-1.326-3.627-3.51-3.627h-3.861v7.254h3.861c2.184 0 3.51-.897 3.51-3.627z"/><path d="m134.313 68.623h11.777c6 8.178 15.675 13.491 26.595 13.491h96.33c18.208 0 32.968-14.761 32.968-32.969s-14.76-32.968-32.968-32.968h-96.33c-18.208 0-32.968 14.76-32.968 32.968 0 2.345.249 4.631.714 6.837l-8.121 7.542c-1.958 1.821-.671 5.099 2.003 5.099zm104.712-32.496c0-1.248 1.326-1.872 2.652-1.872h13.884c1.287 0 1.833 1.365 1.833 2.613 0 1.443-.663 2.691-1.833 2.691h-10.452v6.591h5.85c1.17 0 1.833 1.131 1.833 2.379 0 1.054-.546 2.302-1.833 2.302h-5.85v6.63h10.452c1.17 0 1.833 1.248 1.833 2.691 0 1.248-.546 2.613-1.833 2.613h-13.884c-1.326 0-2.652-.624-2.652-1.872zm-22.776-.039c0-.975.741-1.833 1.872-1.833h8.073c5.343 0 9.595 1.989 9.595 8.347 0 4.368-1.989 6.864-4.719 7.917l4.758 8.619c.156.234.195.507.195.702 0 1.521-2.028 3.159-3.822 3.159-.78 0-1.521-.312-1.95-1.131l-5.343-10.375h-2.574v9.399c0 1.248-1.521 1.872-3.042 1.872s-3.042-.624-3.042-1.872v-24.804zm-10.296 0c0-1.287 1.521-1.833 3.042-1.833s3.042.546 3.042 1.833v24.805c0 1.248-1.521 1.872-3.042 1.872s-3.042-.624-3.042-1.872zm-20.085.039c0-1.248 1.326-1.872 2.652-1.872h13.533c1.287 0 1.833 1.365 1.833 2.613 0 1.443-.663 2.691-1.833 2.691h-10.101v6.591h5.889c1.17 0 1.833 1.131 1.833 2.379 0 1.054-.546 2.302-1.833 2.302h-5.889v10.062c0 1.248-1.521 1.872-3.042 1.872s-3.042-.624-3.042-1.872z"/><ellipse cx="293.347" cy="201.589" rx="37.17" ry="37.17" transform="matrix(.42 -.907 .907 .42 -12.864 383.043)"/><path d="m299.295 369.292-38.154-26.568 12.882-27.813c-3.657-2.67-5.083-5.516-5.831-6.475l-11.365 4.379c-12.713 4.897-27.566-3.069-29.178-18.195l-2.33-21.864c-.557-5.227.818-10.22 3.547-14.273l8.848 8.091c-.654 1.506-.945 3.193-.759 4.942l2.345 22c.747 7.004 7.527 10.611 13.321 8.379l8.778-3.382-19.255-28.126 35.198 30.285c4.772 4.105 11.562 5.201 17.47 2.586l61.438-27.181c8.591-3.8 12.338-14.027 8.089-22.528-3.979-7.962-13.75-11.119-21.89-7.518l-51.461 22.767-25.483-21.926-3.965-3.631 9.284-2.084s-25.682-11.847-32.671-15.086c-12.583-5.829-27.509-.353-33.337 12.231l-51.455 113.299c-3.73 8.212-1.939 18.191 5.271 24.132 9.621 7.928 28.874 23.792 53.857 44.379l-63.23 35.65c-9.941 5.605-13.456 18.208-7.852 28.148 5.606 9.943 18.209 13.456 28.148 7.852l89.468-50.442c12.593-7.101 14.216-24.698 2.992-33.947l-58.177-47.938 67.169 37.025c15.005 8.411 20.35 27.393 11.94 42.397-5.652 10.082-13.982 12.73-16.979 14.781l-13.307 7.503-1.637 8.874c-2.07 11.223 5.35 21.999 16.573 24.069 11.219 2.066 21.998-5.344 24.069-16.573l16.142-87.51c1.47-7.977-1.859-16.075-8.513-20.709z"/><path d="m375.463 273.732c-2.888 5.865-7.77 10.789-14.216 13.641l-26.4 11.68 76.308-12.598c8.669-1.431 14.621-9.367 13.732-17.991z"/><path d="m510.563 225.638c-.406-3.809-3.625-6.636-7.371-6.636-.263 0-.529.014-.796.042l-11.082 1.181-.688-6.458c-.406-3.809-3.625-6.636-7.372-6.636-.263 0-.528.014-.795.042-4.076.435-7.028 4.091-6.594 8.167l.688 6.458-116.185 12.384c6.723 2.712 12.441 7.938 15.606 15.091 1.782 4.028 2.564 8.243 2.463 12.372l50.948-5.43c4.076-.435 7.028-4.091 6.593-8.167-.339-3.179-2.64-5.666-5.569-6.404l73.559-7.84c4.077-.433 7.029-4.089 6.595-8.166z"/><path d="m291.477 257.072 41.744-18.854-58.932 8.721z"/></svg>