<?xml version="1.0" encoding="iso-8859-1"?>
<!-- Generator: Adobe Illustrator 19.0.0, SVG Export Plug-In . SVG Version: 6.00 Build 0)  -->
<svg version="1.1" id="Layer_1" xmlns="http://www.w3.org/2000/svg" xmlns:xlink="http://www.w3.org/1999/xlink" x="0px" y="0px"
	 viewBox="0 0 512 512" style="enable-background:new 0 0 512 512;" xml:space="preserve">
<g>
	<g>
		<path d="M148.204,202.609l1.379,23.581c0.237,4.028,2.331,7.717,5.669,9.982c3.32,2.252,7.519,2.856,11.369,1.58l12.621-4.183
			L148.204,202.609z"/>
	</g>
</g>
<g>
	<g>
		<path d="M511.983,153.352c-0.304-5.214-4.628-9.238-9.784-9.238c-0.193,0-0.387,0.006-0.582,0.017l-14.706,0.86l-0.501-8.569
			c-0.306-5.214-4.628-9.238-9.784-9.238c-0.193,0-0.387,0.006-0.582,0.017c-5.409,0.317-9.536,4.957-9.221,10.366l0.501,8.569
			l-79.533,4.652l-19.782-35.024c-1.92-3.335-5.518-5.35-9.365-5.218l-79.706,2.543c-4.735,0.151-8.772,3.476-9.829,8.094
			l-5.615,24.55l21.907-1.093l2.237-10.971l65.423-2.087l11.491,20.567l-14.716,0.861c13.8,20.885,5.559,48.911-16.953,59.171
			l-6.104,2.782l10.304,30.286c3.954,11.623,16.581,17.832,28.194,13.879c11.618-3.953,17.832-16.575,13.879-28.194
			c-11.117-32.675-8.724-25.643-13.659-40.147l37.381-2.186c5.409-0.317,9.536-4.957,9.221-10.366
			c-0.247-4.218-3.128-7.647-6.949-8.806l97.611-5.708C508.172,163.402,512.299,158.762,511.983,153.352z"/>
	</g>
</g>
<g>
	<g>
		<path d="M206.773,53.045c-26.768-4.088-51.798,14.296-55.888,41.077c-4.526,29.623,18.376,56.458,48.543,56.458
			c23.815,0,44.716-17.381,48.423-41.647C251.941,82.157,233.549,57.134,206.773,53.045z"/>
	</g>
</g>
<g>
	<g>
		<path d="M336.32,166.143c-5.09-11.167-18.271-16.092-29.436-11.004l-81.045,36.939c-8.178-4.584-66.046-37.059-74.61-41.822
			c-11.75-6.535-16.266-19.697-16.266-19.697c-9.933-0.071-19.482,3.832-26.521,10.839c-7.039,7.008-10.984,16.54-10.957,26.472
			c0.528,61.581,0.432,111.869,0.351,133.039c-0.027,6.905,1.002,13.896,3.043,20.491c4.407,14.247,13.026,43.684,22.571,84.787
			H26.665C11.938,406.19,0,418.128,0,432.855c0,14.727,11.938,26.665,26.665,26.665h130.432c8.143,0,15.84-3.721,20.898-10.103
			c5.058-6.382,6.922-14.726,5.063-22.652l-22.422-95.568l73.378-7.277l-16.648,104.75c-2.567,16.15,9.895,30.854,26.367,30.854
			c12.883,0,24.216-9.358,26.302-22.483l22.072-138.882c1.298-8.162-1.263-16.465-6.933-22.479
			c-5.67-6.014-13.805-9.059-22.032-8.242l-57.92,5.744l0.148-13.942c-2.717-2.2-2.532-2.137-15.431-15.003l-19.073,6.32
			c-7.552,2.502-16.143,1.556-23.185-3.223c-6.761-4.588-11.083-12.198-11.56-20.356c-1.913-32.717-2.021-31.378-1.465-35.068
			c14.386,8.063-4.26-2.388,79.287,44.443c6.176,3.464,13.635,3.775,20.079,0.838l91.297-41.612
			C336.484,190.488,341.41,177.31,336.32,166.143z"/>
	</g>
</g>
<g>
</g>
<g>
</g>
<g>
</g>
<g>
</g>
<g>
</g>
<g>
</g>
<g>
</g>
<g>
</g>
<g>
</g>
<g>
</g>
<g>
</g>
<g>
</g>
<g>
</g>
<g>
</g>
<g>
</g>
</svg>
