<?xml version="1.0" encoding="iso-8859-1"?>
<!-- Generator: Adobe Illustrator 17.1.0, SVG Export Plug-In . SVG Version: 6.00 Build 0)  -->
<!DOCTYPE svg PUBLIC "-//W3C//DTD SVG 1.1//EN" "http://www.w3.org/Graphics/SVG/1.1/DTD/svg11.dtd">
<svg version="1.1" id="Capa_1" xmlns="http://www.w3.org/2000/svg" xmlns:xlink="http://www.w3.org/1999/xlink" x="0px" y="0px"
	 viewBox="0 0 512.013 512.013" style="enable-background:new 0 0 512.013 512.013;" xml:space="preserve">
<g>
	<path d="M260.978,307.352c-13.936-23.533-39.574-39.355-68.85-39.355c-29.275,0-54.913,15.821-68.849,39.354
		c-0.144,0.203-0.282,0.412-0.409,0.632c-0.133,0.231-0.252,0.466-0.36,0.704c-6.578,11.612-10.354,25.011-10.354,39.283
		c0,14.272,3.776,27.672,10.355,39.285c0.108,0.237,0.226,0.471,0.359,0.701c0.095,0.165,0.209,0.312,0.314,0.467
		c13.914,23.623,39.601,39.519,68.944,39.519s55.03-15.896,68.944-39.519c0.105-0.156,0.219-0.302,0.314-0.467
		c0.133-0.23,0.251-0.464,0.359-0.701c6.579-11.613,10.355-25.012,10.355-39.285c0-14.272-3.776-27.671-10.354-39.283
		c-0.108-0.238-0.227-0.473-0.36-0.704C261.259,307.763,261.121,307.554,260.978,307.352z M128.155,347.968
		c0-8.792,1.784-17.174,5.007-24.807l35.379,20.426c-0.263,1.421-0.408,2.884-0.408,4.38s0.145,2.959,0.408,4.38l-35.379,20.426
		C129.94,365.143,128.155,356.76,128.155,347.968z M192.128,355.962c-4.408,0-7.994-3.586-7.994-7.994s3.586-7.994,7.994-7.994
		s7.994,3.586,7.994,7.994S196.535,355.962,192.128,355.962z M215.713,343.588l35.379-20.426c3.223,7.632,5.007,16.015,5.007,24.807
		c0,8.792-1.784,17.174-5.007,24.807l-35.379-20.426c0.263-1.421,0.408-2.884,0.408-4.38S215.977,345.009,215.713,343.588z
		 M243.064,309.323l-35.362,20.416c-2.215-1.895-4.775-3.395-7.575-4.388v-40.836C217.597,286.705,232.896,295.954,243.064,309.323z
		 M184.128,284.515v40.836c-2.8,0.993-5.36,2.493-7.575,4.388l-35.362-20.416C151.359,295.954,166.658,286.705,184.128,284.515z
		 M141.191,386.614l35.362-20.416c2.215,1.895,4.775,3.395,7.575,4.388v40.837C166.658,409.232,151.359,399.983,141.191,386.614z
		 M200.128,411.423v-40.837c2.8-0.993,5.36-2.493,7.575-4.388l35.362,20.416C232.896,399.983,217.597,409.232,200.128,411.423z"/>
	<path d="M509.862,129.335L469.878,60.08c-4.41-7.639-14.213-10.266-21.853-5.855l-34.627,19.992
		c-6.143,3.547-9.044,10.579-7.652,17.172c-24.394,11.667-51.856,24.812-80.282,38.435l-0.382-0.661
		c-2.209-3.826-7.102-5.136-10.928-2.928c-3.691,2.131-5.031,6.756-3.139,10.515c-21.372,10.247-43.082,20.667-64.261,30.847
		c-2.321-3.479-6.971-4.609-10.644-2.488c-3.316,1.914-4.738,5.844-3.622,9.348c-80.773,38.854-150.681,72.736-159.511,77.833
		c-32.028,18.491-44.459,58.048-29.95,91.165l-8.662,5.001c-2.217-1.727-4.775-3.014-7.572-3.763
		c-5.49-1.471-11.223-0.717-16.145,2.126c-4.921,2.841-8.442,7.429-9.913,12.918c-1.471,5.489-0.716,11.223,2.125,16.145
		s7.43,8.442,12.919,9.913c1.833,0.491,3.692,0.734,5.541,0.734c3.687,0,7.326-0.967,10.604-2.86
		c4.921-2.841,8.442-7.429,9.913-12.918c0.749-2.796,0.914-5.655,0.526-8.439l8.66-5c8.692,11.844,20.691,20.649,34.672,25.404
		c14.655,44.776,56.824,77.212,106.433,77.212c61.735,0,111.96-50.225,111.96-111.96c0-23.976-7.579-46.214-20.462-64.45
		c2.782-1.898,5.578-3.806,8.385-5.721c1.544,2.043,3.93,3.174,6.38,3.174c1.357,0,2.733-0.346,3.993-1.073
		c3.826-2.209,5.137-7.102,2.928-10.928l-0.105-0.181c19.609-13.39,39.534-27.012,58.912-40.272
		c1.545,1.857,3.813,2.887,6.143,2.887c1.357,0,2.733-0.346,3.993-1.073c3.784-2.185,5.102-6.993,2.994-10.8
		c26.741-18.304,52.018-35.626,73.428-50.308c1.852,1.67,4.086,2.891,6.564,3.555c4.129,1.105,8.439,0.537,12.139-1.6l34.627-19.991
		c3.701-2.137,6.348-5.586,7.454-9.714C512.567,137.346,511.999,133.035,509.862,129.335z M23.923,369.813
		c-1.221,0.705-2.645,0.893-4.004,0.527c-1.361-0.364-2.499-1.237-3.204-2.458c-1.455-2.52-0.588-5.752,1.931-7.206
		c0.813-0.47,1.716-0.71,2.63-0.71c0.458,0,0.92,0.061,1.374,0.183c1.361,0.364,2.499,1.237,3.204,2.458
		C27.309,365.126,26.443,368.359,23.923,369.813z M192.128,443.928c-43.1,0-79.651-28.563-91.727-67.753
		c-0.041-1.344-0.418-2.637-1.076-3.771c-2.057-7.805-3.157-15.994-3.157-24.437c0-52.912,43.047-95.96,95.96-95.96
		s95.96,43.048,95.96,95.96S245.04,443.928,192.128,443.928z M461.384,157.324l-19.992-34.628
		c-2.209-3.826-7.103-5.136-10.928-2.928c-3.826,2.209-5.137,7.102-2.928,10.928l14.474,25.07
		c-21.22,14.551-46.253,31.706-72.779,49.864l-18.232-31.578c-2.209-3.825-7.102-5.136-10.928-2.928
		c-3.826,2.209-5.137,7.102-2.928,10.928l18.846,32.642c-19.329,13.227-39.217,26.825-58.804,40.2l-22.519-39.003
		c-2.209-3.826-7.103-5.136-10.928-2.928c-3.826,2.209-5.137,7.102-2.928,10.928l23.123,40.05
		c-3.512,2.397-7.011,4.784-10.485,7.154c-20.423-21.592-49.324-35.086-81.319-35.086c-61.735,0-111.96,50.225-111.96,111.96
		c0,5.184,0.362,10.284,1.048,15.283c-8.543-4.856-15.684-11.905-20.728-20.64c-15.432-26.729-6.241-61.031,20.488-76.463
		c8.546-4.934,80.308-39.685,159.365-77.71l4.473,7.748c1.482,2.566,4.171,4.001,6.936,4.001c1.357,0,2.733-0.346,3.993-1.073
		c3.826-2.209,5.137-7.102,2.928-10.928l-3.869-6.701c21.488-10.328,43.257-20.775,64.216-30.825l2.129,3.687
		c1.482,2.566,4.171,4.001,6.936,4.001c1.357,0,2.733-0.346,3.993-1.073c3.826-2.209,5.137-7.102,2.928-10.928l-1.515-2.624
		c30.174-14.462,58.043-27.8,80.134-38.366c1.399,1.065,3.111,1.638,4.855,1.638c1.357,0,2.733-0.346,3.993-1.073
		c3.826-2.209,5.137-7.102,2.928-10.928l-2.181-3.777l-0.001-0.003l-0.104-0.18l-1.71-2.962l34.621-19.992l39.985,69.25
		L461.384,157.324z"/>
</g>
<g>
</g>
<g>
</g>
<g>
</g>
<g>
</g>
<g>
</g>
<g>
</g>
<g>
</g>
<g>
</g>
<g>
</g>
<g>
</g>
<g>
</g>
<g>
</g>
<g>
</g>
<g>
</g>
<g>
</g>
</svg>
