<?xml version="1.0" encoding="iso-8859-1"?>
<!-- Generator: Adobe Illustrator 16.0.0, SVG Export Plug-In . SVG Version: 6.00 Build 0)  -->
<!DOCTYPE svg PUBLIC "-//W3C//DTD SVG 1.1//EN" "http://www.w3.org/Graphics/SVG/1.1/DTD/svg11.dtd">
<svg version="1.1" id="Capa_1" xmlns="http://www.w3.org/2000/svg" xmlns:xlink="http://www.w3.org/1999/xlink" x="0px" y="0px"
	 width="802.633px" height="802.633px" viewBox="0 0 802.633 802.633" style="enable-background:new 0 0 802.633 802.633;"
	 xml:space="preserve">
<g>
	<g>
		<path d="M409.831,753.152h-23.965v-73.814c18.205-5.924,31.367-23.02,31.367-43.199c0-25.088-20.341-45.426-45.429-45.426
			s-45.426,20.338-45.426,45.426c0,20.182,13.162,37.275,31.366,43.199v73.814h-23.964c-27.328,0-49.481,22.152-49.481,49.48
			h175.012C459.312,775.305,437.158,753.152,409.831,753.152z"/>
		<g>
			<path d="M659.256,753.152h-23.965v-73.814c18.204-5.924,31.366-23.02,31.366-43.199c0-25.088-20.339-45.426-45.427-45.426
				c-25.089,0-45.429,20.338-45.429,45.426c0,20.182,13.163,37.275,31.367,43.199v73.814h-23.965
				c-27.327,0-49.48,22.152-49.48,49.48h175.012C708.735,775.305,686.583,753.152,659.256,753.152z"/>
			<path d="M160.405,753.152h-23.964v-73.814c18.204-5.924,31.366-23.02,31.366-43.199c0-25.088-20.339-45.426-45.427-45.426
				s-45.427,20.338-45.427,45.426c0,20.182,13.162,37.275,31.366,43.199v73.814H84.355c-27.327,0-49.481,22.152-49.481,49.48
				h175.011C209.885,775.305,187.732,753.152,160.405,753.152z"/>
		</g>
		<path d="M682.842,283.496l84.917-59.233l-93.758-43.929l3.332,38.881c-31.025,2.901-67.459,6.561-106.265,10.961
			c-27.27-24.167-57.699-47.205-74.002-55.991c-1.451-0.783-3.239-1.72-5.329-2.795c38.646-49.748,83.874-86.466,131.592-106.518
			l7.078,36.805l78.274-67.763L610.856,0l7.476,38.872c-58.276,23.051-109.275,66.623-150.274,120.659
			c-15.923-7.86-36.571-17.925-59.883-29.289c-41.309-20.139-91.664-44.689-133.331-65.603l18.003-34.061l-103.46,3.866
			l55.077,87.674l18.248-34.524c41.9,21.036,92.559,45.734,134.089,65.98c20.904,10.19,40.351,19.67,55.917,27.335
			c-15.117,22.277-28.62,45.975-40.365,70.469c-61.353,9.753-118.778,21.211-161.063,34.314
			c-72.041,22.322-106.824,71.504-123.317,108.832c-17.739,40.146-18.543,74.925-18.568,76.386
			c-0.125,7.158,5.568,13.051,12.725,13.191c0.086,0,0.172,0.002,0.257,0.002c7.041,0,12.821-5.645,12.972-12.715
			c0.007-0.312,0.858-31.771,16.748-67.248c20.891-46.645,56.847-78.155,106.866-93.654c37.317-11.564,86.954-21.845,140.74-30.789
			c-26.344,63.54-40.884,130.72-40.884,191.439c0,7.17,5.811,12.979,12.979,12.979s12.979-5.811,12.979-12.979
			c0-62.793,16.129-131.927,45.148-196.262c43.843-6.728,89.354-12.599,132.418-17.583c16.264,14.992,30.148,29.451,36.716,39.331
			c35.059,52.747,34.411,95.708,19.695,172.059c-1.356,7.039,3.251,13.844,10.29,15.201c0.828,0.158,1.656,0.236,2.471,0.236
			c6.096,0,11.533-4.314,12.729-10.525c7.368-38.229,11.771-69.914,9.301-100.298c-2.628-32.332-13.071-61.261-32.867-91.042
			c-5.41-8.14-14.195-18.12-24.754-28.729c30.303-3.297,58.708-6.116,83.619-8.447L682.842,283.496z M443.701,246.587
			c4.229-8.086,8.656-16.07,13.289-23.919c6.153-10.417,12.564-20.445,19.21-30.066c3.574,1.815,6.467,3.312,8.549,4.435
			c12.168,6.557,31.622,20.918,51.274,37.248C505.646,237.962,474.429,242.066,443.701,246.587z"/>
	</g>
</g>
<g>
</g>
<g>
</g>
<g>
</g>
<g>
</g>
<g>
</g>
<g>
</g>
<g>
</g>
<g>
</g>
<g>
</g>
<g>
</g>
<g>
</g>
<g>
</g>
<g>
</g>
<g>
</g>
<g>
</g>
</svg>
