<svg height="512pt" viewBox="-9 0 512 512.00016" width="512pt" xmlns="http://www.w3.org/2000/svg"><path d="m371.789062 436.585938c-1.46875-3.917969-5.828124-5.902344-9.753906-4.4375-3.917968 1.46875-5.902344 5.832031-4.4375 9.753906l7.996094 21.34375-69.394531-80.042969c-3.898438-4.496094-11.246094-2.933594-12.972657 2.761719l-28.9375 95.261718-37.574218-96.972656c-2.113282-5.460937-9.398438-6.5625-13.023438-1.9375l-53.910156 68.730469 7.996094-79.742187c.542968-5.410157-4.640625-9.628907-9.847656-7.972657l-54.515626 17.441407 33.894532-46.890626c1.703125-2.359374 1.90625-5.488281.519531-8.046874l-8.253906-15.242188c-1.996094-3.679688-6.589844-5.050781-10.273438-3.054688-3.675781 1.992188-5.042969 6.589844-3.050781 10.269532l5.988281 11.054687-44.597656 61.707031c-4.269531 5.902344 1.496094 13.871094 8.445313 11.652344l65.464843-20.941406-9.449219 94.214844c-.753906 7.519531 8.832032 11.382812 13.5 5.429687l61.792969-78.78125 40.699219 105.03125c2.585938 6.683594 12.222656 6.347657 14.3125-.535156l31.332031-103.144531 88 101.507812c5.503907 6.34375 15.773438.257813 12.820313-7.621094zm0 0"/><path d="m141.785156 254.613281-65.011718-18.199219c-6.441407-1.796874-11.878907 5.039063-8.703126 10.902344l23.746094 43.84375c1.992188 3.679688 6.589844 5.046875 10.273438 3.054688 3.675781-1.992188 5.042968-6.589844 3.050781-10.269532l-15.230469-28.121093 58.285156 16.320312c5.082032 1.425781 10.03125-2.671875 9.59375-7.925781l-7.675781-92.242188 52.910157 95.371094c2.867187 5.164063 10.296874 5.203125 13.214843.066406l39.589844-69.667968 22.46875 68.292968c1.621094 4.929688 7.628906 6.816407 11.773437 3.667969l101.902344-77.34375-38.71875 88.230469c-2.109375 4.816406 1.214844 10.28125 6.46875 10.605469l48.804688 3.027343-51.867188 27.339844c-4.824218 2.546875-5.445312 9.203125-1.214844 12.605469l51.023438 41.066406-65.5-9.832031c-5.722656-.847656-10.238281 4.757812-8.21875 10.148438l14.21875 37.96875c1.140625 3.042968 4.027344 4.917968 7.097656 4.917968 5.265625 0 8.953125-5.273437 7.089844-10.234375l-9.699219-25.90625 80.445313 12.074219c7.613281 1.140625 11.878906-8.5625 5.871094-13.394531l-63.847657-51.386719 65.554688-34.554688c6.75-3.554687 4.558593-13.789062-3.0625-14.261718l-64.925781-4.027344 46.078124-105.019531c3.125-7.125-5.316406-13.789063-11.515624-9.078125l-116.683594 88.566406-24.492188-74.4375c-.933594-2.84375-3.460937-4.871094-6.441406-5.167969-2.988281-.304687-5.859375 1.1875-7.339844 3.792969l-41.371094 72.796875-63.460937-114.390625c-3.941406-7.101562-14.851563-3.800781-14.175781 4.300781zm0 0"/><path d="m312.816406 190.34375c13 11.144531 33.03125 6.414062 39.742188-9.25l62.929687-146.832031c3.539063-8.257813-7.832031-14.710938-13.101562-7.425781l-93.605469 129.457031c-7.761719 10.734375-5.902344 25.53125 4.035156 34.050781zm8.242188-25.171875 53.625-74.164063-36.050782 84.117188c-2.660156 6.203125-10.664062 8.25-15.953124 3.714844-3.96875-3.402344-4.753907-9.335938-1.621094-13.667969zm0 0"/><path d="m206.214844 160.324219c13.578125 0 24.015625-12.261719 21.667968-25.777344l-22.125-128.296875c-1.523437-8.851562-14.578124-8.074219-15.03125.902344-6.9375 137.589844-6.585937 130.285156-6.585937 131.144531 0 11.976563 9.753906 22.027344 22.074219 22.027344zm-3.789063-84.257813c11.226563 65.109375 10.632813 61.332032 10.632813 62.269532 0 3.917968-3.542969 7.339843-7.796875 6.773437-3.402344-.457031-5.96875-3.382813-5.96875-6.808594 0-.28125 3.117187-61.957031 3.132812-62.234375zm0 0"/><path d="m104.875 221.324219c21.171875 0 30.261719-27.398438 12.863281-39.914063l-105.667969-76.054687c-7.289062-5.246094-16.0625 4.449219-10.09375 11.179687l86.414063 97.378906c4.179687 4.707032 10.1875 7.410157 16.484375 7.410157zm4.011719-27.617188c3.789062 2.726563 3.8125 8.3125.109375 11.085938-2.929688 2.199219-6.953125 1.675781-9.273438-.9375l-41.121094-46.339844zm0 0"/><path d="m68.117188 85.175781c1.496093 1.683594 3.574218 2.542969 5.664062 2.542969 6.484375 0 10.015625-7.710938 5.660156-12.609375l-37.109375-41.742187c-2.78125-3.128907-7.566406-3.410157-10.695312-.628907-3.128907 2.78125-3.410157 7.570313-.628907 10.695313zm0 0"/><path d="m279.109375 92.445312c3.171875 0 6.128906-2.007812 7.1875-5.179687l11.109375-33.335937c1.324219-3.972657-.820312-8.261719-4.789062-9.585938-3.972657-1.320312-8.261719.824219-9.585938 4.792969l-11.109375 33.335937c-1.636719 4.902344 2.019531 9.972656 7.1875 9.972656zm0 0"/><path d="m415.625 234.417969c1.699219 3.824219 6.179688 5.546875 10 3.847656l63.640625-28.285156c3.824219-1.699219 5.546875-6.175781 3.847656-10s-6.175781-5.546875-10-3.847657l-63.640625 28.285157c-3.824218 1.699219-5.546875 6.175781-3.847656 10zm0 0"/><path d="m73.789062 328.539062c3.757813 0 7.019532-2.796874 7.503907-6.625.527343-4.148437-2.410157-7.941406-6.558594-8.46875l-61.351563-7.800781c-4.136718-.511719-7.945312 2.410157-8.472656 6.5625-.527344 4.148438 2.410156 7.941407 6.5625 8.472657 65.527344 8.328124 61.558594 7.859374 62.316406 7.859374zm0 0"/><path d="m99.25 414.414062-61.25 55.78125c-3.09375 2.820313-3.316406 7.609376-.5 10.703126s7.609375 3.320312 10.703125.5l61.25-55.78125c3.09375-2.816407 3.316406-7.609376.5-10.703126s-7.613281-3.316406-10.703125-.5zm0 0"/><path d="m478.410156 469.589844-79.804687-55.785156c-3.429688-2.394532-8.152344-1.558594-10.550781 1.871093-2.394532 3.429688-1.558594 8.152344 1.871093 10.550781 86.429688 60.414063 80.738281 57.148438 84.136719 57.148438 7.359375 0 10.425781-9.539062 4.347656-13.785156zm0 0"/><path d="m486.191406 324.746094h-52.023437c-4.1875 0-7.578125 3.390625-7.578125 7.574218 0 4.1875 3.390625 7.578126 7.578125 7.578126h52.023437c4.183594 0 7.574219-3.390626 7.574219-7.578126 0-4.183593-3.390625-7.574218-7.574219-7.574218zm0 0"/></svg>