<?xml version="1.0" encoding="iso-8859-1"?>
<!-- Generator: Adobe Illustrator 19.0.0, SVG Export Plug-In . SVG Version: 6.00 Build 0)  -->
<svg version="1.1" id="Layer_1" xmlns="http://www.w3.org/2000/svg" xmlns:xlink="http://www.w3.org/1999/xlink" x="0px" y="0px"
	 viewBox="0 0 512 512" style="enable-background:new 0 0 512 512;" xml:space="preserve">
<g>
	<g>
		<path d="M485.172,100.585l-30.538,6.069l0.248,16.234c0.112,7.341-5.034,13.71-12.238,15.141l-2.902,0.577
			c-7.587,1.509-15.099-2.876-17.456-10.322l-4.528-14.303l-14.017,2.786c3.085,12.895,12.271,24.096,25.593,29.182
			c21.435,8.184,45.446-2.558,53.631-23.991C485.663,114.893,486.292,107.551,485.172,100.585z"/>
	</g>
</g>
<g>
	<g>
		<path d="M497.006,267.764l-63.058-16.207l-23.531-67.609l34.091,50.903l12.333-32.302c5.529-14.479-1.728-30.7-16.207-36.229
			c-21.427-8.015-35.941-13.238-44.477-16.254c-6.311-2.23-12.934-3.008-19.592-2.334c-13.751,1.39-41.081,4.356-78.941,9.439
			c-6.083,0.866-11.359,4.646-14.136,10.125c-2.778,5.48-2.707,11.971,0.191,17.387l38.704,72.358l-12.863,34.987
			c-3.909,10.631-3.987,22.29-0.222,32.973l10.874,30.856l-58.684-6.402c-12.031-1.323-22.859,7.38-24.173,19.417
			c-1.313,12.037,7.38,22.861,19.418,24.173l93.274,10.176c7.566,0.826,14.918-2.327,19.55-8.164
			c4.683-5.899,6.009-13.787,3.515-20.893l-20.055-57.128l46.692,72.533l-33.08,93.168c-4.052,11.41,1.915,23.945,13.325,27.997
			c11.422,4.054,23.949-1.928,27.997-13.325l36.66-103.253c2.26-6.364,1.46-13.414-2.167-19.112l-32.171-50.527l7.482-19.595
			l-7.449-1.915c-16.223-4.17-25.597-18.421-26.564-27.661l-8.013-76.538l25.984,74.656c2.033,5.831,6.858,10.442,13.092,12.043
			l72.833,18.719c10.007,2.574,20.314-3.419,22.915-13.544C513.093,280.791,507.197,270.384,497.006,267.764z M340.165,210.471
			l-10.603-19.823l19.216-2.736L340.165,210.471z"/>
	</g>
</g>
<g>
	<g>
		<path d="M489.041,87.371v-0.002c-3.297-26.526-27.474-45.351-53.992-42.055c-28.935,3.596-48.152,31.801-40.907,60.031
			c0.428,1.675,2.112,2.707,3.803,2.37l26.65-5.296l7.232,22.845c0.802,2.532,3.379,4.042,5.965,3.526l2.903-0.577
			c2.46-0.489,4.219-2.665,4.181-5.174l-0.376-24.576l42.651-8.476C488.369,89.744,489.193,88.603,489.041,87.371z"/>
	</g>
</g>
<g>
	<g>
		<path d="M248.848,55.645l-30.538,6.069l0.248,16.234c0.111,7.341-5.035,13.71-12.238,15.141l-2.902,0.577
			c-7.587,1.509-15.099-2.876-17.456-10.322l-4.528-14.303l-14.017,2.786c3.085,12.895,12.271,24.096,25.593,29.182
			c21.435,8.184,45.446-2.558,53.631-23.991C249.338,69.954,249.967,62.612,248.848,55.645z"/>
	</g>
</g>
<g>
	<g>
		<path d="M260.681,222.826l-63.058-16.207l-23.531-67.609l34.091,50.903l12.333-32.303c5.529-14.479-1.728-30.7-16.207-36.229
			c-21.427-8.015-35.941-13.238-44.477-16.254c-6.311-2.23-12.934-3.008-19.592-2.334c-13.751,1.39-41.081,4.356-78.941,9.439
			c-6.083,0.866-11.359,4.646-14.136,10.125c-2.778,5.48-2.707,11.971,0.191,17.387l38.704,72.358l-12.864,34.986
			c-3.909,10.631-3.987,22.29-0.222,32.973l10.874,30.856l-58.684-6.402c-12.031-1.323-22.859,7.38-24.173,19.417
			c-1.313,12.037,7.38,22.861,19.418,24.173l93.274,10.176c7.566,0.826,14.918-2.327,19.55-8.164
			c4.683-5.899,6.009-13.787,3.515-20.893l-20.055-57.128l46.692,72.533l-33.08,93.168c-4.052,11.41,1.915,23.945,13.325,27.997
			c11.422,4.054,23.949-1.928,27.997-13.325l36.66-103.253c2.26-6.364,1.46-13.414-2.167-19.112l-32.172-50.527l7.482-19.595
			l-7.449-1.915c-16.223-4.17-25.597-18.421-26.563-27.661l-8.013-76.538l25.984,74.656c2.033,5.831,6.858,10.442,13.092,12.043
			l72.833,18.719c10.007,2.574,20.314-3.419,22.915-13.544C276.768,235.852,270.872,225.446,260.681,222.826z M103.839,165.531
			l-10.603-19.823l19.216-2.736L103.839,165.531z"/>
	</g>
</g>
<g>
	<g>
		<path d="M252.716,42.432v-0.002c-3.297-26.526-27.474-45.351-53.992-42.055c-28.935,3.596-48.152,31.801-40.907,60.031
			c0.427,1.676,2.112,2.707,3.803,2.37l26.65-5.296l7.232,22.845c0.802,2.532,3.379,4.042,5.965,3.526l2.903-0.577
			c2.46-0.489,4.219-2.665,4.181-5.174l-0.376-24.576l42.651-8.476C252.045,44.804,252.869,43.664,252.716,42.432z"/>
	</g>
</g>
<g>
</g>
<g>
</g>
<g>
</g>
<g>
</g>
<g>
</g>
<g>
</g>
<g>
</g>
<g>
</g>
<g>
</g>
<g>
</g>
<g>
</g>
<g>
</g>
<g>
</g>
<g>
</g>
<g>
</g>
</svg>
