<?xml version="1.0" encoding="iso-8859-1"?>
<!-- Generator: Adobe Illustrator 19.0.0, SVG Export Plug-In . SVG Version: 6.00 Build 0)  -->
<svg version="1.1" id="Layer_1" xmlns="http://www.w3.org/2000/svg" xmlns:xlink="http://www.w3.org/1999/xlink" x="0px" y="0px"
	 viewBox="0 0 512 512" style="enable-background:new 0 0 512 512;" xml:space="preserve">
<g>
	<g>
		<path d="M167.874,72.172c-7.745,3.366-16.439,5.154-25.445,5.154c-9.074,0-17.822-1.812-25.603-5.223
			c-2.606,4.626-7.421,7.517-12.729,7.66c1.703,19.939,18.416,35.593,38.795,35.593c20.374,0,37.085-15.647,38.795-35.579
			C175.138,79.776,170.476,76.735,167.874,72.172z"/>
	</g>
</g>
<g>
	<g>
		<path d="M132.463,354.105c-14.295,5.945-30.294-3.355-32.326-18.598c-0.732-5.491-5.837-43.783-6.444-48.34l-2.18-1.485
			c0,0-0.174-2.535-0.174,202.44c0,13.188,10.691,23.878,23.878,23.878s23.878-10.69,23.878-23.878V351.347L132.463,354.105z"/>
	</g>
</g>
<g>
	<g>
		<path d="M238.756,172.014c-0.125-25.006-20.573-45.349-45.577-45.349c-8.469,0-74.68,0-83.295,0
			c4.111,9.885,32.081,77.147,36.501,87.775c2.122,5.103,2.13,10.728,0.022,15.838c-0.115,0.28-0.249,0.548-0.375,0.821
			c12.445,11.55,15.747,30.121,7.949,45.292c5.868,14.036,9.581,22.919,15.424,36.894c4.977,11.968-0.711,25.753-12.679,30.731
			l-10.547,4.385v139.72c0,13.188,10.691,23.878,23.878,23.878c13.187,0,23.878-10.69,23.878-23.878c0-10.754,0-272.625,0-315.894
			c0-1.385,1.121-2.508,2.505-2.512c1.385-0.003,2.512,1.114,2.518,2.499c0.291,57.845,0.242,30.956,0.179,120.842
			c-0.008,10.989,8.895,19.905,19.884,19.912c0.006,0,0.009,0,0.015,0c10.982,0,19.891-8.9,19.898-19.884
			C238.998,203.06,239.048,230.005,238.756,172.014z"/>
	</g>
</g>
<g>
	<g>
		<path d="M135.322,219.041L68.419,58.155l7.039-2.927c4.443-1.848,6.547-6.948,4.699-11.39c-1.848-4.444-6.948-6.547-11.39-4.699
			l-7.039,2.927l-5.024-12.08c-1.848-4.444-6.946-6.547-11.39-4.7c-4.444,1.848-6.548,6.948-4.7,11.391l33.345,80.184
			c-2.411-2.602-6.269-3.571-9.733-2.131c-4.443,1.848-6.547,6.947-4.7,11.391c3.357,8.073,23.674,56.929,26.417,63.525
			l49.943,34.02C136.114,222.151,135.954,220.559,135.322,219.041z"/>
	</g>
</g>
<g>
	<g>
		<path d="M158.344,317.885l-12.772-30.551c-10.304,9.291-25.212,12.455-38.783,7.4l5.224,39.19
			c1.003,7.524,8.879,12.019,15.851,9.12l24.262-10.09C158.005,330.509,160.788,323.763,158.344,317.885z"/>
	</g>
</g>
<g>
	<g>
		<path d="M131.267,242.564l-58.35-39.746l2.718-4.783l-19.34-46.509c-15.353,27.01-14.589,25.667-27.043,47.575
			c-5.121,9.01-2.469,20.444,6.097,26.278l73.514,50.075c9.086,6.192,21.464,3.837,27.648-5.242
			C142.699,261.128,140.35,248.75,131.267,242.564z"/>
	</g>
</g>
<g>
	<g>
		<path d="M190.373,64.126c-1.638-8.838-5.666-30.644-5.666-31.455C184.706,14.628,165.778,0,142.43,0
			c-22.281,0-40.522,13.324-42.146,30.222h-0.131L94.25,64.166c-0.33,1.896,1.132,3.631,3.054,3.631h6.388
			c1.149,0,2.205-0.636,2.741-1.653l5.662-10.726c7.683,6.119,18.431,9.927,30.335,9.927c11.808,0,22.479-3.745,30.148-9.776
			l5.659,10.588c0.539,1.009,1.59,1.638,2.734,1.638h6.355C189.261,67.795,190.728,66.038,190.373,64.126z"/>
	</g>
</g>
<g>
	<g>
		<path d="M414.238,72.172c-7.745,3.366-16.439,5.154-25.445,5.154c-9.074,0-17.822-1.812-25.603-5.223
			c-2.606,4.626-7.421,7.517-12.729,7.66c1.703,19.939,18.416,35.593,38.795,35.593c20.374,0,37.085-15.647,38.795-35.579
			C421.503,79.776,416.841,76.735,414.238,72.172z"/>
	</g>
</g>
<g>
	<g>
		<path d="M378.828,354.105c-14.295,5.945-30.294-3.355-32.326-18.598c-0.732-5.491-5.837-43.783-6.444-48.34l-2.18-1.485
			c0,0-0.174-2.535-0.174,202.44c0,13.188,10.691,23.878,23.878,23.878c13.187,0,23.878-10.69,23.878-23.878V351.347
			L378.828,354.105z"/>
	</g>
</g>
<g>
	<g>
		<path d="M485.122,172.014c-0.127-25.006-20.574-45.349-45.579-45.349c-8.469,0-74.68,0-83.295,0
			c4.111,9.885,32.081,77.147,36.501,87.775c2.122,5.103,2.13,10.728,0.022,15.838c-0.115,0.28-0.249,0.548-0.375,0.821
			c12.445,11.55,15.747,30.121,7.949,45.292c5.868,14.036,9.581,22.919,15.424,36.894c4.977,11.968-0.711,25.753-12.679,30.731
			l-10.547,4.385v139.72c0,13.188,10.691,23.878,23.878,23.878s23.878-10.69,23.878-23.878c0-10.754,0-272.625,0-315.894
			c0-1.385,1.121-2.508,2.505-2.512c1.385-0.003,2.512,1.114,2.519,2.499c0.291,57.845,0.242,30.956,0.179,120.842
			c-0.008,10.989,8.895,19.905,19.884,19.912c0.006,0,0.009,0,0.015,0c10.982,0,19.891-8.9,19.898-19.884
			C485.364,203.061,485.413,230.005,485.122,172.014z"/>
	</g>
</g>
<g>
	<g>
		<path d="M381.687,219.041L314.783,58.155l7.039-2.927c4.443-1.848,6.547-6.948,4.699-11.39c-1.848-4.444-6.948-6.547-11.39-4.699
			l-7.039,2.927l-5.024-12.08c-1.848-4.444-6.946-6.547-11.39-4.7c-4.443,1.848-6.548,6.948-4.7,11.391l33.345,80.184
			c-2.411-2.602-6.269-3.571-9.732-2.131c-4.444,1.848-6.547,6.947-4.7,11.391c3.357,8.073,23.674,56.929,26.417,63.525
			l49.943,34.02C382.478,222.151,382.318,220.559,381.687,219.041z"/>
	</g>
</g>
<g>
	<g>
		<path d="M404.708,317.885l-12.772-30.551c-10.304,9.291-25.212,12.455-38.783,7.4l5.224,39.19
			c1.003,7.524,8.879,12.019,15.851,9.12l24.262-10.09C404.369,330.509,407.152,323.763,404.708,317.885z"/>
	</g>
</g>
<g>
	<g>
		<path d="M377.632,242.564l-58.35-39.746l2.718-4.783l-19.341-46.509c-15.353,27.01-14.589,25.667-27.043,47.575
			c-5.121,9.01-2.469,20.444,6.098,26.278l73.514,50.075c9.087,6.192,21.465,3.837,27.649-5.242
			C389.063,261.128,386.715,248.75,377.632,242.564z"/>
	</g>
</g>
<g>
	<g>
		<path d="M436.737,64.126c-1.638-8.838-5.666-30.644-5.666-31.455C431.071,14.628,412.142,0,388.794,0
			c-22.281,0-40.522,13.324-42.146,30.222h-0.131l-5.903,33.943c-0.33,1.896,1.132,3.631,3.054,3.631h6.388
			c1.149,0,2.205-0.636,2.741-1.653l5.662-10.726c7.683,6.119,18.431,9.927,30.335,9.927c11.808,0,22.479-3.745,30.148-9.776
			l5.659,10.588c0.539,1.009,1.59,1.638,2.734,1.638h6.355C435.625,67.795,437.092,66.038,436.737,64.126z"/>
	</g>
</g>
<g>
</g>
<g>
</g>
<g>
</g>
<g>
</g>
<g>
</g>
<g>
</g>
<g>
</g>
<g>
</g>
<g>
</g>
<g>
</g>
<g>
</g>
<g>
</g>
<g>
</g>
<g>
</g>
<g>
</g>
</svg>
