<svg id="Capa_1" enable-background="new 0 0 510.48 510.48" height="512" viewBox="0 0 510.48 510.48" width="512" xmlns="http://www.w3.org/2000/svg"><path d="m180.721 270.208 71.367-14.326c9.848-1.977 16.229-11.563 14.251-21.41-1.047-5.213-4.237-9.437-8.459-11.981-4.76 7.34-12.573 12.636-21.925 13.879l-26.146 3.477-42.514 27.817c3.964 2.551 8.768 3.48 13.426 2.544z"/><path d="m176.569 303.907-31.326-21.814-7.594 4.969c-13.036 8.529-30.604 2.326-35.453-12.413l-7.695-23.392c-4.076-12.391 2.613-25.784 15.114-29.896l18.599-6.08-13.225-19.069 37.428 32.203c3.936 3.386 9.125 4.925 14.259 4.242l67.59-8.988c9.956-1.324 16.954-10.469 15.63-20.425-1.324-9.957-10.467-16.956-20.425-15.63l-59.51 7.914-31.249-26.887 29.023 14.256.664-.088c-2.407-6.727-7.401-12.523-14.396-15.763l-44.7-20.704c-13.844-6.412-30.264-.388-36.676 13.456l-56.606 124.644c-4.101 9.029-2.139 20.008 5.799 26.549 13.75 11.33 49.642 40.905 59.251 48.823l-69.089 38.953c-10.739 6.055-15.176 19.563-9.504 30.509 5.953 11.49 20.185 15.663 31.359 9.363l98.428-55.494c13.854-7.811 15.641-27.171 3.292-37.347l-61.467-50.649c1.403.655-3.412-2.043 70.221 40.024 15.735 8.99 21.204 29.034 12.214 44.77-5.938 10.393-14.551 13.178-17.499 15.194l-13.338 7.52-2.224 12.056c-2.277 12.347 5.886 24.202 18.232 26.479 12.291 2.269 24.192-5.833 26.479-18.232l17.758-96.274c1.619-8.773-2.043-17.681-9.364-22.779z"/><ellipse cx="160.622" cy="109.809" rx="40.892" ry="40.893" transform="matrix(.42 -.907 .907 .42 -6.526 209.404)"/><path d="m262.599 201.554c.017.13.026.259.042.39l47.533-15.637c4.284-1.409 6.614-6.024 5.205-10.308-1.099-3.341-4.149-5.483-7.47-5.601l77.308-25.432c4.284-1.409 6.614-6.024 5.205-10.308-1.402-4.262-6.004-6.621-10.308-5.205l-11.647 3.831-2.233-6.787c-1.402-4.262-6.004-6.621-10.308-5.205-4.284 1.409-6.614 6.024-5.205 10.308l2.233 6.787-113.253 37.257c11.821 3.092 21.188 13.05 22.898 25.91z"/><path d="m144.061 238.128-8.188-11.806-22.257 7.276c-5.667 1.864-8.75 7.97-6.885 13.637l7.695 23.392c2.223 6.756 10.249 9.54 16.175 5.663l49.698-32.518-11.933 1.587c-2.152-.166-15.83 4.934-24.305-7.231z"/><path d="m337.59 307.482c3.443 0 6.234-2.791 6.234-6.233v-20.056c0-3.443-2.791-6.234-6.234-6.234h-54.748c-3.443 0-6.234 2.791-6.234 6.234v20.056c0 3.443 2.791 6.233 6.234 6.233z"/><path d="m356.832 281.192v20.056c0 3.443 2.791 6.233 6.234 6.233h54.748c3.443 0 6.234-2.791 6.234-6.233v-20.056c0-3.443-2.791-6.234-6.234-6.234h-54.748c-3.443.001-6.234 2.792-6.234 6.234z"/><path d="m443.29 307.482h54.748c3.443 0 6.234-2.791 6.234-6.233v-20.056c0-3.443-2.791-6.234-6.234-6.234h-54.748c-3.443 0-6.234 2.791-6.234 6.234v20.056c.001 3.442 2.792 6.233 6.234 6.233z"/><path d="m242.73 352.868h54.748c3.443 0 6.234-2.791 6.234-6.234v-20.056c0-3.443-2.791-6.234-6.234-6.234h-54.748c-3.443 0-6.234 2.791-6.234 6.234v20.056c0 3.443 2.791 6.234 6.234 6.234z"/><path d="m383.935 346.634v-20.056c0-3.443-2.791-6.234-6.234-6.234h-54.748c-3.443 0-6.234 2.791-6.234 6.234v20.056c0 3.443 2.791 6.234 6.234 6.234h54.748c3.443 0 6.234-2.791 6.234-6.234z"/><path d="m457.926 320.345h-54.748c-3.443 0-6.234 2.791-6.234 6.234v20.056c0 3.443 2.791 6.234 6.234 6.234h54.748c3.443 0 6.234-2.791 6.234-6.234v-20.056c0-3.443-2.791-6.234-6.234-6.234z"/><path d="m483.403 320.345c-3.443 0-6.234 2.791-6.234 6.234v20.056c0 3.443 2.791 6.234 6.234 6.234h27.077v-32.523h-27.077z"/><path d="m282.842 397.362h54.748c3.443 0 6.234-2.791 6.234-6.233v-20.056c0-3.443-2.791-6.234-6.234-6.234h-54.748c-3.443 0-6.234 2.791-6.234 6.234v20.056c0 3.442 2.791 6.233 6.234 6.233z"/><path d="m363.066 397.362h54.748c3.443 0 6.234-2.791 6.234-6.233v-20.056c0-3.443-2.791-6.234-6.234-6.234h-54.748c-3.443 0-6.234 2.791-6.234 6.234v20.056c0 3.442 2.791 6.233 6.234 6.233z"/><path d="m437.057 371.072v20.056c0 3.442 2.791 6.233 6.234 6.233h54.748c3.443 0 6.234-2.791 6.234-6.233v-20.056c0-3.443-2.791-6.234-6.234-6.234h-54.749c-3.442 0-6.233 2.791-6.233 6.234z"/><path d="m297.477 409.05h-54.747c-3.443 0-6.234 2.791-6.234 6.234v20.056c0 3.443 2.791 6.233 6.234 6.233h54.748c3.443 0 6.234-2.791 6.234-6.233v-20.056c-.001-3.443-2.792-6.234-6.235-6.234z"/><path d="m377.702 409.05h-54.748c-3.443 0-6.234 2.791-6.234 6.234v20.056c0 3.443 2.791 6.233 6.234 6.233h54.748c3.443 0 6.234-2.791 6.234-6.233v-20.056c-.001-3.443-2.792-6.234-6.234-6.234z"/><path d="m457.926 409.05h-54.748c-3.443 0-6.234 2.791-6.234 6.234v20.056c0 3.443 2.791 6.233 6.234 6.233h54.748c3.443 0 6.234-2.791 6.234-6.233v-20.056c0-3.443-2.791-6.234-6.234-6.234z"/><path d="m477.169 415.284v20.056c0 3.443 2.791 6.233 6.234 6.233h27.077v-32.523h-27.077c-3.443 0-6.234 2.791-6.234 6.234z"/></svg>