<?xml version="1.0" encoding="iso-8859-1"?>
<!-- Generator: Adobe Illustrator 19.0.0, SVG Export Plug-In . SVG Version: 6.00 Build 0)  -->
<svg version="1.1" id="Layer_1" xmlns="http://www.w3.org/2000/svg" xmlns:xlink="http://www.w3.org/1999/xlink" x="0px" y="0px"
	 viewBox="0 0 511.996 511.996" style="enable-background:new 0 0 511.996 511.996;" xml:space="preserve">
<g>
	<g>
		<path d="M199.871,267.328l39.811-59.634c5.33-7.985,3.177-18.779-4.806-24.11c-7.986-5.331-18.779-3.177-24.11,4.806
			l-30.698,45.985l-12.327-7.241l-50.456-29.64l34.69,9.914c-0.701-4.684,0.425-9.578,3.35-13.539
			c-5.661-7.316-14.166-11.236-22.807-11.298l-26.929-0.193c-16.187-0.116-29.363,13.011-29.319,29.19
			c0.148,35.458,0.577,78.362,0.764,95.964c0.057,5.312,0.718,10.739,1.956,15.904c2.448,10.216,7.018,29.378,11.98,50.647
			l-76.566,24.95C3.449,402.604-2.537,414.377,1.032,425.33c3.577,10.981,15.374,16.934,26.296,13.371l94.792-30.889
			c10.305-3.358,16.322-14.047,13.847-24.598c-6.599-28.125-3.69-15.726-10.293-43.875l57.404-5.693l-13.023,81.947
			c-2.01,12.635,7.743,24.138,20.627,24.138c10.077,0,18.944-7.32,20.575-17.589l17.268-108.648
			c1.01-6.387-0.994-12.883-5.429-17.586c-4.436-4.705-10.818-7.074-17.236-6.448l-46.792,4.619
			c-2.282,3.781-5.489,9.09-6.946,11.504c-6.912,11.446-23.061,13.617-32.647,3.652c-10.583-11.002-6.454-6.709-16.046-16.68
			c-7.915-8.228-7.66-21.361,0.582-29.29l18.622-17.846l-10.874-10.846c7.124,4.185,57.855,33.985,64.847,38.092
			C184.554,277.333,194.756,274.988,199.871,267.328z"/>
	</g>
</g>
<g>
	<g>
		<path d="M305.492,74.336c-2.937-3.054-7.796-3.15-10.851-0.21L164.664,199.154c-3.055,2.939-3.149,7.797-0.21,10.852
			c1.543,1.605,1.541,1.412,11.816,4.348l22.623-33.887c8.89-13.316,26.12-17.717,40.128-10.909l19.53-18.787
			c3.055-2.938,3.149-7.797,0.21-10.852c-2.291-2.383-5.748-2.956-8.608-1.702l55.127-53.029
			C308.336,82.25,308.43,77.391,305.492,74.336z"/>
	</g>
</g>
<g>
	<g>
		<path d="M130.107,252.874l-18.793,18.011c-4.042,3.887-4.166,10.314-0.278,14.354l16.046,16.68
			c4.638,4.822,12.569,3.907,16.008-1.79l12.928-21.411L130.107,252.874z"/>
	</g>
</g>
<g>
	<g>
		<path d="M166.287,99.871c-20.948-3.2-40.523,11.188-43.722,32.136s11.188,40.524,32.136,43.722
			c20.844,3.184,40.511-11.119,43.722-32.136C201.623,122.645,187.235,103.071,166.287,99.871z"/>
	</g>
</g>
<g>
	<g>
		<path d="M509.852,74.62c-2.937-3.054-7.796-3.151-10.852-0.21L369.025,199.438c-3.055,2.938-3.15,7.797-0.21,10.852
			c1.545,1.607,1.541,1.412,11.816,4.348l22.623-33.888c8.89-13.317,26.121-17.717,40.13-10.909l19.53-18.787
			c3.055-2.938,3.15-7.797,0.21-10.852c-2.29-2.381-5.746-2.956-8.608-1.702l55.129-53.029
			C512.697,82.533,512.791,77.675,509.852,74.62z"/>
	</g>
</g>
<g>
	<g>
		<path d="M334.467,253.157l-18.793,18.011c-4.04,3.887-4.165,10.314-0.278,14.356l16.046,16.68
			c4.638,4.822,12.567,3.907,16.008-1.79l12.928-21.411L334.467,253.157z"/>
	</g>
</g>
<g>
	<g>
		<path d="M370.648,100.155c-20.948-3.2-40.523,11.188-43.722,32.136c-3.2,20.948,11.188,40.523,32.136,43.722
			c20.844,3.184,40.511-11.119,43.722-32.136C405.984,122.929,391.596,103.354,370.648,100.155z"/>
	</g>
</g>
<g>
	<g>
		<path d="M404.233,267.61l39.811-59.634c5.325-7.984,3.174-18.778-4.811-24.108c-7.986-5.331-18.779-3.177-24.11,4.806
			l-30.698,45.985c-9.787-5.749-56.096-32.952-62.784-36.881l34.691,9.914c-0.701-4.683,0.425-9.578,3.35-13.539
			c-5.661-7.316-14.166-11.236-22.807-11.298l-26.929-0.193c-7.77-0.056-15.241,2.997-20.747,8.48
			c-5.507,5.482-8.593,12.939-8.572,20.709l2.231,97.649c0.146,6.405,0.919,12.78,2.306,19.035l10.163,45.831l-60.729,19.79
			l-4.913,30.915c-0.87,5.47-2.822,10.498-5.605,14.9c2.502,0.138,4.986-0.133,7.606-0.986l94.792-30.89
			c10.304-3.358,16.321-14.047,13.846-24.599l-10.294-43.873l57.404-5.693l-13.024,81.947c-1.808,11.378,5.951,22.067,17.328,23.875
			c11.308,1.807,22.058-5.892,23.876-17.327l17.266-108.648c1.015-6.385-0.989-12.88-5.424-17.584
			c-4.436-4.705-10.815-7.074-17.235-6.449l-46.758,4.566l-0.046,0.076l-6.932,11.481c-6.912,11.446-23.061,13.617-32.647,3.652
			c-10.645-11.066-6.266-6.513-16.046-16.68c-7.915-8.228-7.66-21.361,0.582-29.29l18.622-17.846l-10.874-10.846
			c7.124,4.185,57.855,33.985,64.846,38.092C388.903,277.609,399.112,275.28,404.233,267.61z"/>
	</g>
</g>
<g>
</g>
<g>
</g>
<g>
</g>
<g>
</g>
<g>
</g>
<g>
</g>
<g>
</g>
<g>
</g>
<g>
</g>
<g>
</g>
<g>
</g>
<g>
</g>
<g>
</g>
<g>
</g>
<g>
</g>
</svg>
